<?xml version="1.0" encoding="iso-8859-1"?>
<!-- Generator: Adobe Illustrator 19.0.0, SVG Export Plug-In . SVG Version: 6.00 Build 0)  -->
<svg version="1.1" id="Capa_1" xmlns="http://www.w3.org/2000/svg" xmlns:xlink="http://www.w3.org/1999/xlink" x="0px" y="0px"
	 viewBox="0 0 480 480" style="enable-background:new 0 0 480 480;" xml:space="preserve">
<g>
	<g>
		<path d="M472,96h-8V56c0-4.418-3.582-8-8-8h-24V8c0-4.418-3.582-8-8-8h-80c-4.418,0-8,3.582-8,8v40H144V8c0-4.418-3.582-8-8-8H56
			c-4.418,0-8,3.582-8,8v40H24c-4.418,0-8,3.582-8,8v40H8c-4.418,0-8,3.582-8,8v32c0,4.418,3.582,8,8,8h8v328c0,4.418,3.582,8,8,8
			h432c4.418,0,8-3.582,8-8V144h8c4.418,0,8-3.582,8-8v-32C480,99.582,476.418,96,472,96z M352,16h64v32h-64V16z M64,16h64v32H64V16
			z M32,64h416v32H32V64z M448,464H32V144h416V464z M464,128H16v-16h448V128z"/>
	</g>
</g>
<g>
	<g>
		<path d="M325.183,257.887c-1.449-1.223-3.286-1.892-5.183-1.887h-50.4l33.392-60.12c2.143-3.864,0.748-8.733-3.116-10.876
			c-1.186-0.658-2.52-1.003-3.876-1.004h-80c-2.808,0.001-5.41,1.473-6.856,3.88l-72,120c-1.486,2.473-1.526,5.554-0.104,8.064
			c1.42,2.507,4.079,4.056,6.96,4.056h69.168l-28.8,93.648c-1.307,4.22,1.054,8.702,5.275,10.009
			c3.076,0.953,6.423-0.031,8.493-2.497l128-152C328.986,265.784,328.559,260.736,325.183,257.887z M211.2,380.8l20.44-66.4
			c1.326-4.215-1.017-8.706-5.232-10.031c-0.779-0.245-1.592-0.369-2.409-0.368h-65.872l62.4-104H282.4l-33.392,60.12
			c-2.143,3.864-0.748,8.733,3.116,10.876c1.186,0.658,2.52,1.003,3.876,1.004h46.808L211.2,380.8z"/>
	</g>
</g>
<g>
	<g>
		<path d="M96,160c-26.51,0-48,21.49-48,48c0.026,26.499,21.501,47.974,48,48c26.51,0,48-21.49,48-48C144,181.49,122.51,160,96,160z
			 M96,240c-17.673,0-32-14.327-32-32s14.327-32,32-32s32,14.327,32,32S113.673,240,96,240z"/>
	</g>
</g>
<g>
	<g>
		<path d="M384,160c-26.51,0-48,21.49-48,48c0.026,26.499,21.501,47.974,48,48c26.51,0,48-21.49,48-48
			C432,181.49,410.51,160,384,160z M384,240c-17.673,0-32-14.327-32-32s14.327-32,32-32c17.673,0,32,14.327,32,32
			S401.673,240,384,240z"/>
	</g>
</g>
<g>
	<g>
		<rect x="80" y="200" width="32" height="16"/>
	</g>
</g>
<g>
	<g>
		<polygon points="392,200 392,192 376,192 376,200 368,200 368,216 376,216 376,224 392,224 392,216 400,216 400,200 		"/>
	</g>
</g>
<g>
</g>
<g>
</g>
<g>
</g>
<g>
</g>
<g>
</g>
<g>
</g>
<g>
</g>
<g>
</g>
<g>
</g>
<g>
</g>
<g>
</g>
<g>
</g>
<g>
</g>
<g>
</g>
<g>
</g>
</svg>
