<svg height="512pt" viewBox="0 0 512 512" width="512pt" xmlns="http://www.w3.org/2000/svg"><path d="m407 90c-8.277344 0-15 6.722656-15 15s6.722656 15 15 15 15-6.722656 15-15-6.722656-15-15-15zm0 0"/><path d="m256 332c-24.8125 0-45 20.1875-45 45s20.1875 45 45 45 45-20.1875 45-45-20.1875-45-45-45zm0 0"/><path d="m407 0c-6.476562 0-12.804688.601562-18.984375 1.730469l-326.578125 60.5c-35.597656 6.535156-61.4375 37.558593-61.4375 73.769531 0 11.207031 2.417969 21.988281 7.179688 32.007812l126.726562 266.589844c21.960938 46.363282 70.964844 77.402344 122.09375 77.402344 53.726562 0 102.996094-33.261719 123.882812-81.371094l.480469-1.105468c.003907-.015626.015625-.027344.019531-.042969l122.960938-282.761719c5.742188-13.183594 8.65625-27.214844 8.65625-41.71875 0-57.890625-47.109375-105-105-105zm-347 121h30v30h-30zm196 331c-41.351562 0-75-33.648438-75-75s33.648438-75 75-75 75 33.648438 75 75-33.648438 75-75 75zm129.761719-110.1875c-15.597657-57.320312-67.566407-99.8125-129.761719-99.8125-63.625 0-116.769531 44.375-130.972656 103.703125l-65.34375-136.921875c5.03125 1.074219 10.0625 2.21875 15.316406 2.21875 41.351562 0 75-33.648438 75-75 0-21.816406-9.519531-41.308594-24.441406-55.027344l196.148437-36.59375c-12.28125 17.273438-19.707031 38.117188-19.707031 60.621094 0 57.890625 47.109375 105 105 105 13.902344 0 27.257812-2.964844 39.640625-8.035156zm21.238281-191.8125c-24.8125 0-45-20.1875-45-45s20.1875-45 45-45 45 20.1875 45 45-20.1875 45-45 45zm0 0"/></svg>