<svg height="512pt" viewBox="0 -136 512 512" width="512pt" xmlns="http://www.w3.org/2000/svg"><path d="m256 0c-102.558594 0-192.316406 46.753906-241.585938 116.640625-36.640624 51.972656.839844 123.6875 64.433594 123.6875h354.304688c63.59375 0 101.074218-71.714844 64.433594-123.6875-49.269532-69.886719-139.027344-116.640625-241.585938-116.640625zm0 0" fill="#ffdaaa"/><path d="m256 0c-102.558594 0-192.316406 46.753906-241.585938 116.640625-36.640624 51.972656.839844 123.6875 64.433594 123.6875h92.898438c11.945312-18.960937 20.277344-43.453125 20.972656-75.066406 1.933594-87.558594 59.3125-140.917969 91.550781-164.066407-9.296875-.789062-18.726562-1.195312-28.269531-1.195312zm0 0" fill="#f9cf9d"/><path d="m74.996094 121.0625c2.6875 24.945312 35.785156 31.890625 48.207031 10.089844 24.097656-42.289063 65.179687-96.773438 128.753906-131.1289065-65.039062.7968745-124.789062 20.3789065-172.03125 52.6914065-5.199219 19.628906-7.714843 42.503906-4.929687 68.347656zm0 0" fill="#f4b67d"/><path d="m272.222656 116.976562c-7.402344 23.972657 20.246094 43.449219 40.28125 28.34375 35.441406-26.722656 87.851563-57.171874 151.390625-67.175781-30.679687-28.601562-69.359375-50.859375-113.019531-64.175781-26.203125 16.378906-61.566406 47.671875-78.652344 103.007812zm0 0" fill="#f9c38a"/></svg>