<svg height="512pt" viewBox="0 -100 512 512" width="512pt" xmlns="http://www.w3.org/2000/svg"><path d="m437.019531 74.980469c-48.355469-48.351563-112.640625-74.980469-181.019531-74.980469-68.382812 0-132.667969 26.628906-181.019531 74.980469-48.351563 48.351562-74.980469 112.640625-74.980469 181.019531 0 30.421875 24.746094 55.167969 55.167969 55.167969h401.667969c30.417968 0 55.164062-24.746094 55.164062-55.167969 0-68.378906-26.628906-132.667969-74.980469-181.019531zm0 0" fill="#ff9f00"/><path d="m437.019531 74.980469c-48.355469-48.351563-112.640625-74.980469-181.019531-74.980469v311.167969h200.835938c30.417968 0 55.164062-24.746094 55.164062-55.167969 0-68.378906-26.628906-132.667969-74.980469-181.019531zm0 0" fill="#f77e00"/><path d="m290.113281 2.269531c-11.296875-1.503906-22.773437-2.269531-34.113281-2.269531-11.34375 0-22.820312.765625-34.113281 2.269531-7.453125.992188-13.019531 7.351563-13.019531 14.867188v126.398437c0 25.988282 21.144531 47.132813 47.132812 47.132813s47.132812-21.144531 47.132812-47.132813v-126.398437c0-7.519531-5.566406-13.875-13.019531-14.867188zm0 0" fill="#ffd396"/><path d="m426.671875 65.210938c-20.351563-18.21875-43.320313-32.980469-68.265625-43.882813-4.640625-2.023437-9.984375-1.578125-14.21875 1.191406-4.234375 2.773438-6.789062 7.492188-6.789062 12.554688v108.460937c0 25.988282 21.144531 47.132813 47.132812 47.132813 25.992188 0 47.132812-21.144531 47.132812-47.132813v-67.148437c0-4.265625-1.8125-8.332031-4.992187-11.175781zm0 0" fill="#ffb64c"/><path d="m167.8125 22.519531c-4.234375-2.769531-9.582031-3.21875-14.21875-1.191406-24.945312 10.902344-47.910156 25.664063-68.265625 43.882813-3.175781 2.84375-4.992187 6.910156-4.992187 11.175781v67.148437c0 25.988282 21.140624 47.132813 47.132812 47.132813 25.988281 0 47.132812-21.144531 47.132812-47.132813v-108.464844c0-5.058593-2.554687-9.78125-6.789062-12.550781zm0 0" fill="#ffd396"/><path d="m290.113281 2.269531c-11.296875-1.503906-22.773437-2.269531-34.113281-2.269531v190.667969c25.988281 0 47.132812-21.144531 47.132812-47.132813v-126.398437c0-7.519531-5.566406-13.875-13.019531-14.867188zm0 0" fill="#ffb64c"/></svg>