<svg height="512pt" viewBox="0 0 512 512.00051" width="512pt" xmlns="http://www.w3.org/2000/svg" xmlns:xlink="http://www.w3.org/1999/xlink"><linearGradient id="a" gradientUnits="userSpaceOnUse" x1=".0006553824" x2="511.9397273824" y1="256.0004473824" y2="256.0004473824"><stop offset="0" stop-color="#00f2fe"/><stop offset=".0208" stop-color="#03effe"/><stop offset=".2931" stop-color="#24d2fe"/><stop offset=".5538" stop-color="#3cbdfe"/><stop offset=".7956" stop-color="#4ab0fe"/><stop offset="1" stop-color="#4facfe"/></linearGradient><path d="m506.054688 244.800781-156.199219-155.546875c-6.945313-6.917968-17.734375-7.6875-25.539063-2.242187.484375-1.03125.972656-2.074219 1.460938-3.121094 3.554687-7.632813 1.949218-16.671875-4.015625-22.613281l-55.679688-55.449219c-7.816406-7.785156-20.460937-7.769531-28.257812.035156l-158.039063 158.171875c-20.308594 20.324219-23.332031 52.328125-7.199218 76.097656l36.476562 53.730469c9.171875 13.511719 6.007812 31.53125-7.183594 41.113281-4.128906 2.8125-8.476562 5.765626-12.925781 8.785157-35.625 24.1875-59.707031 40.773437-68.785156 50.121093-13.007813 13.074219-20.167969 30.421876-20.167969 48.867188 0 18.507812 7.207031 35.90625 20.292969 48.992188 13.507812 13.503906 31.25 20.257812 48.992187 20.257812 17.640625 0 35.28125-6.675781 48.761719-20.027344 10.558594-10.003906 25.472656-31.875 48.679687-66.5625 3.445313-5.152344 6.894532-10.308594 10.285157-15.335937 9.582031-13.183594 27.589843-16.34375 41.101562-7.175781l53.570313 36.359374c23.828125 16.171876 55.871094 13.097657 76.195312-7.304687.035156-.039063.074219-.074219.109375-.109375l29.074219-29.648438c7.691406-7.84375 7.617188-20.421874-.167969-28.171874l-225.753906-224.816407 100.867187-100.953125 31.53125 31.402344c-16.710937 34.828125-31.28125 60.652344-42.417968 75.132812-5.917969 7.691407-5.457032 18.527344 1.09375 25.691407 6.554687 7.160156 17.300781 8.582031 25.492187 3.371093 21.210938-13.496093 43.886719-31.171874 67.574219-52.667968l25.742188 25.636718c-7.511719 8.648438-19.359376 21.359376-34.078126 33.972657-8.386718 7.1875-9.355468 19.8125-2.167968 28.199219 3.953125 4.613281 9.558594 6.984374 15.191406 6.984374 4.605469 0 9.234375-1.582031 13.003906-4.816406 15.414063-13.210937 27.929688-26.375 36.457032-36.050781l74.222656 73.914063-44.773438 44.917968c-7.796875 7.820313-7.773437 20.484375.046875 28.28125 7.820313 7.792969 20.484375 7.773438 28.28125-.046875l58.898438-59.085937c3.742187-3.757813 5.84375-8.851563 5.832031-14.15625-.007812-5.304688-2.125-10.390625-5.882812-14.132813zm-171.441407 143.554688-15.113281 15.414062c-6.777344 6.761719-17.429688 7.769531-25.355469 2.394531l-53.570312-36.359374c-15.203125-10.316407-33.535157-14.21875-51.621094-10.984376-18.082031 3.230469-33.929687 13.242188-44.617187 28.183594-.105469.152344-.210938.300782-.3125.457032-3.472657 5.148437-7.003907 10.429687-10.539063 15.710937-15.605469 23.328125-35.03125 52.363281-43.007813 59.824219-.164062.152344-.324218.304687-.480468.464844-11.417969 11.417968-30.003906 11.417968-41.417969 0-5.535156-5.535157-8.582031-12.890626-8.582031-20.710938 0-7.824219 3.046875-15.179688 8.578125-20.710938.09375-.09375.1875-.1875.277343-.28125 6.726563-7 40.328126-29.808593 62.566407-44.902343 4.550781-3.09375 9-6.109375 13.210937-8.984375.128906-.085938.253906-.175782.378906-.265625 14.925782-10.691407 24.917969-26.539063 28.140626-44.613281 3.222656-18.078126-.683594-36.398438-10.992188-51.589844l-36.476562-53.734375c-5.378907-7.921875-4.371094-18.589844 2.398437-25.363281l14.792969-14.808594zm0 0" fill="url(#a)"/></svg>