<?xml version="1.0" encoding="iso-8859-1"?>
<!-- Generator: Adobe Illustrator 19.0.0, SVG Export Plug-In . SVG Version: 6.00 Build 0)  -->
<svg version="1.1" id="Capa_1" xmlns="http://www.w3.org/2000/svg" xmlns:xlink="http://www.w3.org/1999/xlink" x="0px" y="0px"
	 viewBox="0 0 512 512" style="enable-background:new 0 0 512 512;" xml:space="preserve">
<g>
	<g>
		<path d="M433.402,224.594c-5.131,0-10.143,0.51-15.002,1.453l-9.202-22.766v-41.593c9.597,0.315,17.307,8.221,17.307,17.893h30
			c0-26.413-21.489-47.902-47.903-47.902h-29.404v69.39l-53.955,69.68c-1.595-0.302-3.229-0.489-4.896-0.552l-38.782-83.772h12.782
			v-30h-62.034v30h16.193l3.419,7.386h-29.271v-63.598h-93.598v93.598h15h78.598h22.463l-5.382,7.656
			c-9.804-4.403-20.656-6.873-32.081-6.873c-43.339,0-78.598,35.259-78.598,78.598c0,43.339,35.259,78.598,78.598,78.598
			c38.209,0,70.121-27.411,77.145-63.598h4.885c5.474,10.689,16.597,18.026,29.409,18.026c18.211,0,33.026-14.815,33.026-33.026
			c0-5.032-1.136-9.802-3.157-14.074l11.259-14.541c-3.482,8.875-5.416,18.52-5.416,28.615c0,43.339,35.259,78.598,78.598,78.598
			S512,346.529,512,303.19S476.741,224.594,433.402,224.594z M246.494,274.017c3.193,4.24,5.701,9.02,7.377,14.173h-17.339
			L246.494,274.017z M207.654,351.788c-26.797,0-48.598-21.801-48.598-48.598s21.801-48.598,48.598-48.598
			c4.979,0,9.785,0.756,14.312,2.153l-43.19,61.444h75.096C247.535,337.667,229.217,351.788,207.654,351.788z M289.683,288.19
			h-4.885c-2.939-15.145-10.241-28.742-20.54-39.445l7.897-11.235l20.973,45.304C291.815,284.485,290.66,286.284,289.683,288.19z
			 M390.075,236.022l0.525,1.299c-1.112,0.725-2.204,1.475-3.276,2.254L390.075,236.022z M433.402,351.788
			c-26.797,0-48.598-21.801-48.598-48.598c0-14.92,6.764-28.285,17.38-37.207l17.311,42.828l27.813-11.242l-17.317-42.844
			c1.128-0.079,2.263-0.133,3.41-0.133c26.797,0,48.598,21.801,48.598,48.598S460.199,351.788,433.402,351.788z"/>
	</g>
</g>
<g>
	<g>
		<rect x="27.689" y="130.211" width="58.8" height="30"/>
	</g>
</g>
<g>
	<g>
		<rect x="27.689" y="250.211" width="58.8" height="30"/>
	</g>
</g>
<g>
	<g>
		<rect y="190.211" width="86.49" height="30"/>
	</g>
</g>
<g>
</g>
<g>
</g>
<g>
</g>
<g>
</g>
<g>
</g>
<g>
</g>
<g>
</g>
<g>
</g>
<g>
</g>
<g>
</g>
<g>
</g>
<g>
</g>
<g>
</g>
<g>
</g>
<g>
</g>
</svg>
