<?xml version="1.0" encoding="iso-8859-1"?>
<!-- Generator: Adobe Illustrator 19.0.0, SVG Export Plug-In . SVG Version: 6.00 Build 0)  -->
<svg version="1.1" id="Capa_1" xmlns="http://www.w3.org/2000/svg" xmlns:xlink="http://www.w3.org/1999/xlink" x="0px" y="0px"
	 viewBox="0 0 242 242" style="enable-background:new 0 0 242 242;" xml:space="preserve">
<g>
	<rect x="21.751" width="198" height="42"/>
	<polygon points="104.75,175.76 121,188.09 137.25,175.76 121,165.162 	"/>
	<path d="M218.904,60H23.096L1.59,242H240.41L218.904,60z M199.157,160.786l-21.75,4.496l-12.656-12.531v15.342
		c0,24.249-19.408,43.906-43.657,43.906h-0.187c-24.249,0-44.156-19.657-44.156-43.906v-15.342l-12.407,12.531l-21.563-4.496
		l-4.465-21.625l26.005-25.989c7.129-7.129,18.863-7.104,25.991,0.025l0.132,0.128c0.523,0.522,0.997,1.076,1.443,1.645
		C99.625,108.147,109.78,104,120.906,104h0.187c11.127,0,21.279,4.147,29.017,10.969c0.446-0.568,0.919-1.122,1.441-1.645
		l0.128-0.128c7.129-7.129,18.855-7.153,25.984-0.025l25.989,25.989L199.157,160.786z"/>
</g>
<g>
</g>
<g>
</g>
<g>
</g>
<g>
</g>
<g>
</g>
<g>
</g>
<g>
</g>
<g>
</g>
<g>
</g>
<g>
</g>
<g>
</g>
<g>
</g>
<g>
</g>
<g>
</g>
<g>
</g>
</svg>
