<?xml version="1.0" encoding="iso-8859-1"?>
<!-- Generator: Adobe Illustrator 19.0.0, SVG Export Plug-In . SVG Version: 6.00 Build 0)  -->
<svg xmlns="http://www.w3.org/2000/svg" xmlns:xlink="http://www.w3.org/1999/xlink" version="1.1" id="Layer_1" x="0px" y="0px" viewBox="0 0 512.051 512.051" style="enable-background:new 0 0 512.051 512.051;" xml:space="preserve" width="512" height="512">
<g>
	<path d="M359.037,278.848c-7.808-4.57-16.143-7.822-24.771-7.822c-45.648,0-63.968,57.457-63.267,107.254   c0.778,55.219,28.411,133.467,80.449,133.467c9.597,0,15.615-2.673,23.833-6.182c9.899-4.411,16.672-6.22,33.442,0.879   c7.059,2.983,13.05,5.288,21.753,5.288c52.141,0,80.259-77.906,81.522-131.605c1.179-50.132-17.833-109.087-64.296-109.087   c-8.628,0-16.948,3.237-24.771,7.837c-5.889,3.419-11.171,7.912-16.934,11.358v-19.21c0-24.814,20.186-45,45-45h15v-30h-15   c-41.353,0-75,33.647-75,75v19.237C370.252,286.791,364.832,282.252,359.037,278.848z"/>
	<path d="M241,378.71c-0.308-22.456,2.593-79.384,36.387-113.646c14.7-14.923,33.224-22.912,53.613-23.719v-98.467l-90,35.991   l-75-30l-75,30L0,142.877v279.148h245.968C242.952,407.148,241.192,392.368,241,378.71z"/>
	<path d="M253.995,452.026H0v60h287.747C272.849,495.896,261.713,474.623,253.995,452.026z"/>
	<rect x="60" y="0.026" width="61" height="30"/>
	<polygon points="151,122.554 151,60.026 30,60.026 30,122.56 91,146.554  "/>
	<path d="M302.844,121.822l44.976-44.976c17.573-17.574,17.573-46.066,0-63.64c-17.574-17.573-46.066-17.573-63.64,0l-10.607,10.607   l21.215,21.213l-21.215,21.213L252.36,45.026l-21.213,21.213l21.213,21.215l-21.213,21.213l-21.213-21.213L181,116.387v6.167l60,24   L302.844,121.822z"/>
</g>















</svg>
