<?xml version="1.0" encoding="UTF-8"?>
<!DOCTYPE svg PUBLIC "-//W3C//DTD SVG 1.1//EN" "http://www.w3.org/Graphics/SVG/1.1/DTD/svg11.dtd">
<svg version="1.2" width="29mm" height="20mm" viewBox="0 0 2900 2000" preserveAspectRatio="xMidYMid" fill-rule="evenodd" stroke-width="28.222" stroke-linejoin="round" xmlns="http://www.w3.org/2000/svg" xmlns:ooo="http://xml.openoffice.org/svg/export" xmlns:xlink="http://www.w3.org/1999/xlink" xmlns:presentation="http://sun.com/xmlns/staroffice/presentation" xmlns:smil="http://www.w3.org/2001/SMIL20/" xmlns:anim="urn:oasis:names:tc:opendocument:xmlns:animation:1.0" xml:space="preserve">
 <defs class="ClipPathGroup">
  <clipPath id="presentation_clip_path" clipPathUnits="userSpaceOnUse">
   <rect x="0" y="0" width="2900" height="2000"/>
  </clipPath>
  <clipPath id="presentation_clip_path_shrink" clipPathUnits="userSpaceOnUse">
   <rect x="2" y="2" width="2895" height="1996"/>
  </clipPath>
 </defs>
 <defs class="TextShapeIndex">
  <g ooo:slide="id1" ooo:id-list="id3 id4 id5 id6 id7 id8 id9"/>
 </defs>
 <defs class="EmbeddedBulletChars">
  <g id="bullet-char-template-57356" transform="scale(0.00048828125,-0.00048828125)">
   <path d="M 580,1141 L 1163,571 580,0 -4,571 580,1141 Z"/>
  </g>
  <g id="bullet-char-template-57354" transform="scale(0.00048828125,-0.00048828125)">
   <path d="M 8,1128 L 1137,1128 1137,0 8,0 8,1128 Z"/>
  </g>
  <g id="bullet-char-template-10146" transform="scale(0.00048828125,-0.00048828125)">
   <path d="M 174,0 L 602,739 174,1481 1456,739 174,0 Z M 1358,739 L 309,1346 659,739 1358,739 Z"/>
  </g>
  <g id="bullet-char-template-10132" transform="scale(0.00048828125,-0.00048828125)">
   <path d="M 2015,739 L 1276,0 717,0 1260,543 174,543 174,936 1260,936 717,1481 1274,1481 2015,739 Z"/>
  </g>
  <g id="bullet-char-template-10007" transform="scale(0.00048828125,-0.00048828125)">
   <path d="M 0,-2 C -7,14 -16,27 -25,37 L 356,567 C 262,823 215,952 215,954 215,979 228,992 255,992 264,992 276,990 289,987 310,991 331,999 354,1012 L 381,999 492,748 772,1049 836,1024 860,1049 C 881,1039 901,1025 922,1006 886,937 835,863 770,784 769,783 710,716 594,584 L 774,223 C 774,196 753,168 711,139 L 727,119 C 717,90 699,76 672,76 641,76 570,178 457,381 L 164,-76 C 142,-110 111,-127 72,-127 30,-127 9,-110 8,-76 1,-67 -2,-52 -2,-32 -2,-23 -1,-13 0,-2 Z"/>
  </g>
  <g id="bullet-char-template-10004" transform="scale(0.00048828125,-0.00048828125)">
   <path d="M 285,-33 C 182,-33 111,30 74,156 52,228 41,333 41,471 41,549 55,616 82,672 116,743 169,778 240,778 293,778 328,747 346,684 L 369,508 C 377,444 397,411 428,410 L 1163,1116 C 1174,1127 1196,1133 1229,1133 1271,1133 1292,1118 1292,1087 L 1292,965 C 1292,929 1282,901 1262,881 L 442,47 C 390,-6 338,-33 285,-33 Z"/>
  </g>
  <g id="bullet-char-template-9679" transform="scale(0.00048828125,-0.00048828125)">
   <path d="M 813,0 C 632,0 489,54 383,161 276,268 223,411 223,592 223,773 276,916 383,1023 489,1130 632,1184 813,1184 992,1184 1136,1130 1245,1023 1353,916 1407,772 1407,592 1407,412 1353,268 1245,161 1136,54 992,0 813,0 Z"/>
  </g>
  <g id="bullet-char-template-8226" transform="scale(0.00048828125,-0.00048828125)">
   <path d="M 346,457 C 273,457 209,483 155,535 101,586 74,649 74,723 74,796 101,859 155,911 209,963 273,989 346,989 419,989 480,963 531,910 582,859 608,796 608,723 608,648 583,586 532,535 482,483 420,457 346,457 Z"/>
  </g>
  <g id="bullet-char-template-8211" transform="scale(0.00048828125,-0.00048828125)">
   <path d="M -4,459 L 1135,459 1135,606 -4,606 -4,459 Z"/>
  </g>
  <g id="bullet-char-template-61548" transform="scale(0.00048828125,-0.00048828125)">
   <path d="M 173,740 C 173,903 231,1043 346,1159 462,1274 601,1332 765,1332 928,1332 1067,1274 1183,1159 1299,1043 1357,903 1357,740 1357,577 1299,437 1183,322 1067,206 928,148 765,148 601,148 462,206 346,322 231,437 173,577 173,740 Z"/>
  </g>
 </defs>
 <defs class="TextEmbeddedBitmaps"/>
 <g>
  <g id="id2" class="Master_Slide">
   <g id="bg-id2" class="Background"/>
   <g id="bo-id2" class="BackgroundObjects"/>
  </g>
 </g>
 <g class="SlideGroup">
  <g>
   <g id="container-id1">
    <g id="id1" class="Slide" clip-path="url(#presentation_clip_path)">
     <g class="Page">
      <g class="com.sun.star.drawing.CustomShape">
       <g id="id3">
        <rect class="BoundingBox" stroke="none" fill="none" x="0" y="1036" width="564" height="739"/>
        <g>
         <defs>
          <linearGradient id="gradient1" x1="281" y1="1037" x2="281" y2="1774" gradientUnits="userSpaceOnUse">
           <stop offset="0" style="stop-color:rgb(255,255,0)"/>
           <stop offset="1" style="stop-color:rgb(255,69,0)"/>
          </linearGradient>
         </defs>
         <path style="fill:url(#gradient1)" d="M 55,1117 L 50,1119 45,1122 41,1125 37,1129 33,1133 29,1138 26,1142 24,1148 21,1153 19,1158 18,1164 17,1169 17,1175 17,1181 18,1186 20,1191 210,1735 212,1740 215,1745 218,1749 222,1753 226,1757 231,1761 235,1764 241,1767 246,1769 251,1771 257,1773 263,1774 268,1774 274,1774 279,1773 284,1771 507,1694 512,1691 517,1689 521,1685 526,1682 530,1677 533,1673 536,1668 539,1663 541,1657 543,1652 545,1646 546,1640 546,1635 546,1629 545,1624 543,1619 353,1075 351,1070 348,1065 345,1061 341,1056 337,1053 332,1049 327,1046 322,1043 317,1041 311,1039 306,1038 300,1037 294,1037 289,1037 283,1038 278,1040 55,1117 Z"/>
        </g>
       </g>
      </g>
      <g class="com.sun.star.drawing.CustomShape">
       <g id="id4">
        <rect class="BoundingBox" stroke="none" fill="none" x="215" y="593" width="788" height="1390"/>
        <g>
         <defs>
          <linearGradient id="gradient2" x1="608" y1="594" x2="608" y2="1981" gradientUnits="userSpaceOnUse">
           <stop offset="0" style="stop-color:rgb(255,255,0)"/>
           <stop offset="1" style="stop-color:rgb(255,69,0)"/>
          </linearGradient>
         </defs>
         <path style="fill:url(#gradient2)" d="M 270,673 L 265,675 260,678 256,681 251,685 248,689 244,693 241,698 238,703 236,709 234,714 233,720 232,725 232,731 232,736 233,742 234,747 651,1942 653,1947 656,1952 659,1957 663,1961 667,1965 672,1968 677,1972 682,1974 687,1977 692,1979 698,1980 704,1981 709,1981 715,1981 720,1980 725,1979 945,1902 950,1900 955,1897 960,1894 964,1890 968,1886 971,1881 975,1876 977,1871 980,1866 982,1860 983,1855 984,1849 984,1843 984,1838 983,1832 982,1827 565,632 563,627 560,622 557,617 553,613 549,609 544,606 539,603 534,600 529,598 523,596 517,595 512,594 506,594 501,594 495,595 490,596 270,673 Z"/>
        </g>
       </g>
      </g>
      <g class="com.sun.star.drawing.CustomShape">
       <g id="id5">
        <rect class="BoundingBox" stroke="none" fill="none" x="2325" y="213" width="531" height="772"/>
        <g>
         <defs>
          <linearGradient id="gradient3" x1="2589" y1="230" x2="2589" y2="967" gradientUnits="userSpaceOnUse">
           <stop offset="0" style="stop-color:rgb(255,255,0)"/>
           <stop offset="1" style="stop-color:rgb(255,69,0)"/>
          </linearGradient>
         </defs>
         <path style="fill:url(#gradient3)" d="M 2587,233 L 2592,231 2598,230 2603,230 2609,230 2614,231 2620,232 2625,234 2631,237 2636,239 2641,242 2645,246 2649,250 2653,254 2656,258 2659,263 2661,268 2851,812 2853,817 2854,823 2854,828 2854,834 2853,839 2852,845 2850,851 2848,856 2845,861 2842,866 2838,871 2835,875 2830,879 2826,882 2821,885 2816,887 2593,964 2588,966 2583,967 2577,967 2571,967 2566,966 2560,964 2554,962 2549,960 2544,957 2539,954 2534,951 2530,947 2526,942 2523,938 2520,933 2518,928 2328,384 2326,379 2325,374 2325,368 2325,363 2326,357 2328,352 2330,346 2332,341 2335,336 2338,331 2342,326 2346,322 2350,318 2354,315 2359,312 2364,310 2587,233 Z"/>
        </g>
       </g>
      </g>
      <g class="com.sun.star.drawing.CustomShape">
       <g id="id6">
        <rect class="BoundingBox" stroke="none" fill="none" x="1882" y="-1" width="752" height="1426"/>
        <g>
         <defs>
          <linearGradient id="gradient4" x1="2257" y1="16" x2="2257" y2="1406" gradientUnits="userSpaceOnUse">
           <stop offset="0" style="stop-color:rgb(255,255,0)"/>
           <stop offset="1" style="stop-color:rgb(255,69,0)"/>
          </linearGradient>
         </defs>
         <path style="fill:url(#gradient4)" d="M 2142,18 L 2148,17 2153,16 2159,16 2164,16 2170,17 2175,18 2181,20 2186,22 2191,25 2196,28 2200,32 2205,36 2208,40 2211,44 2214,49 2216,54 2630,1252 2631,1257 2632,1262 2633,1268 2632,1274 2631,1279 2630,1285 2628,1290 2626,1296 2623,1301 2620,1306 2617,1310 2613,1315 2609,1318 2604,1322 2599,1324 2594,1327 2374,1404 2368,1405 2363,1406 2357,1406 2352,1406 2346,1405 2340,1404 2335,1402 2329,1399 2324,1397 2319,1393 2315,1390 2310,1386 2307,1382 2303,1377 2301,1372 2299,1367 1885,170 1883,164 1883,159 1882,154 1883,148 1884,142 1885,137 1887,131 1889,126 1892,121 1895,116 1899,111 1903,107 1907,104 1912,100 1917,98 1922,95 2142,18 Z"/>
        </g>
       </g>
      </g>
      <g class="com.sun.star.drawing.CustomShape">
       <g id="id7">
        <rect class="BoundingBox" stroke="none" fill="none" x="711" y="590" width="1435" height="791"/>
        <g>
         <defs>
          <linearGradient id="gradient5" x1="1428" y1="591" x2="1428" y2="1379" gradientUnits="userSpaceOnUse">
           <stop offset="0" style="stop-color:rgb(255,255,0)"/>
           <stop offset="1" style="stop-color:rgb(255,69,0)"/>
          </linearGradient>
         </defs>
         <path style="fill:url(#gradient5)" d="M 1484,1149 L 823,1379 711,1052 2033,591 2145,918 1484,1149 Z"/>
        </g>
       </g>
      </g>
      <g class="com.sun.star.drawing.CustomShape">
       <g id="id8">
        <rect class="BoundingBox" stroke="none" fill="none" x="218" y="593" width="788" height="1390"/>
        <g>
         <defs>
          <linearGradient id="gradient6" x1="611" y1="594" x2="611" y2="1981" gradientUnits="userSpaceOnUse">
           <stop offset="0" style="stop-color:rgb(255,255,0)"/>
           <stop offset="1" style="stop-color:rgb(255,69,0)"/>
          </linearGradient>
         </defs>
         <path style="fill:url(#gradient6)" d="M 273,673 L 268,675 263,678 259,681 254,685 251,689 247,693 244,698 241,703 239,709 237,714 236,720 235,725 235,731 235,736 236,742 237,747 654,1942 656,1947 659,1952 662,1957 666,1961 670,1965 675,1968 680,1972 685,1974 690,1977 695,1979 701,1980 707,1981 712,1981 718,1981 723,1980 728,1979 948,1902 953,1900 958,1897 963,1894 967,1890 971,1886 974,1881 978,1876 980,1871 983,1866 985,1860 986,1855 987,1849 987,1843 987,1838 986,1832 985,1827 568,632 566,627 563,622 560,617 556,613 552,609 547,606 542,603 537,600 532,598 526,596 520,595 515,594 509,594 504,594 498,595 493,596 273,673 Z"/>
        </g>
       </g>
      </g>
      <g class="com.sun.star.drawing.CustomShape">
       <g id="id9">
        <rect class="BoundingBox" stroke="none" fill="none" x="221" y="593" width="783" height="1392"/>
        <g>
         <defs>
          <linearGradient id="gradient7" x1="612" y1="594" x2="612" y2="1984" gradientUnits="userSpaceOnUse">
           <stop offset="0" style="stop-color:rgb(255,255,0)"/>
           <stop offset="1" style="stop-color:rgb(255,69,0)"/>
          </linearGradient>
         </defs>
         <path style="fill:url(#gradient7)" d="M 276,673 L 271,675 267,678 262,681 258,685 254,689 251,694 247,698 245,703 242,709 241,714 239,720 238,725 238,731 238,736 239,742 241,747 653,1945 655,1950 657,1955 661,1960 664,1964 668,1968 673,1971 678,1974 683,1977 688,1979 693,1981 699,1982 705,1983 710,1984 716,1983 721,1982 726,1981 946,1904 951,1902 956,1899 961,1896 965,1892 969,1888 972,1884 976,1879 978,1874 981,1868 983,1863 984,1857 985,1852 986,1846 985,1841 985,1835 983,1830 571,632 569,627 566,622 563,618 559,613 555,610 551,606 546,603 540,600 535,598 530,596 524,595 518,594 513,594 507,594 502,595 496,596 276,673 Z"/>
        </g>
       </g>
      </g>
     </g>
    </g>
   </g>
  </g>
 </g>
</svg>