<?xml version="1.0" encoding="UTF-8"?>
<!DOCTYPE svg PUBLIC "-//W3C//DTD SVG 1.1//EN" "http://www.w3.org/Graphics/SVG/1.1/DTD/svg11.dtd">
<svg version="1.2" width="25.2mm" height="19mm" viewBox="0 0 2520 1900" preserveAspectRatio="xMidYMid" fill-rule="evenodd" stroke-width="28.222" stroke-linejoin="round" xmlns="http://www.w3.org/2000/svg" xmlns:ooo="http://xml.openoffice.org/svg/export" xmlns:xlink="http://www.w3.org/1999/xlink" xmlns:presentation="http://sun.com/xmlns/staroffice/presentation" xmlns:smil="http://www.w3.org/2001/SMIL20/" xmlns:anim="urn:oasis:names:tc:opendocument:xmlns:animation:1.0" xml:space="preserve">
 <defs class="ClipPathGroup">
  <clipPath id="presentation_clip_path" clipPathUnits="userSpaceOnUse">
   <rect x="0" y="0" width="2520" height="1900"/>
  </clipPath>
  <clipPath id="presentation_clip_path_shrink" clipPathUnits="userSpaceOnUse">
   <rect x="2" y="1" width="2515" height="1897"/>
  </clipPath>
 </defs>
 <defs class="TextShapeIndex">
  <g ooo:slide="id1" ooo:id-list="id3 id4 id5 id6 id7 id8 id9"/>
 </defs>
 <defs class="EmbeddedBulletChars">
  <g id="bullet-char-template-57356" transform="scale(0.00048828125,-0.00048828125)">
   <path d="M 580,1141 L 1163,571 580,0 -4,571 580,1141 Z"/>
  </g>
  <g id="bullet-char-template-57354" transform="scale(0.00048828125,-0.00048828125)">
   <path d="M 8,1128 L 1137,1128 1137,0 8,0 8,1128 Z"/>
  </g>
  <g id="bullet-char-template-10146" transform="scale(0.00048828125,-0.00048828125)">
   <path d="M 174,0 L 602,739 174,1481 1456,739 174,0 Z M 1358,739 L 309,1346 659,739 1358,739 Z"/>
  </g>
  <g id="bullet-char-template-10132" transform="scale(0.00048828125,-0.00048828125)">
   <path d="M 2015,739 L 1276,0 717,0 1260,543 174,543 174,936 1260,936 717,1481 1274,1481 2015,739 Z"/>
  </g>
  <g id="bullet-char-template-10007" transform="scale(0.00048828125,-0.00048828125)">
   <path d="M 0,-2 C -7,14 -16,27 -25,37 L 356,567 C 262,823 215,952 215,954 215,979 228,992 255,992 264,992 276,990 289,987 310,991 331,999 354,1012 L 381,999 492,748 772,1049 836,1024 860,1049 C 881,1039 901,1025 922,1006 886,937 835,863 770,784 769,783 710,716 594,584 L 774,223 C 774,196 753,168 711,139 L 727,119 C 717,90 699,76 672,76 641,76 570,178 457,381 L 164,-76 C 142,-110 111,-127 72,-127 30,-127 9,-110 8,-76 1,-67 -2,-52 -2,-32 -2,-23 -1,-13 0,-2 Z"/>
  </g>
  <g id="bullet-char-template-10004" transform="scale(0.00048828125,-0.00048828125)">
   <path d="M 285,-33 C 182,-33 111,30 74,156 52,228 41,333 41,471 41,549 55,616 82,672 116,743 169,778 240,778 293,778 328,747 346,684 L 369,508 C 377,444 397,411 428,410 L 1163,1116 C 1174,1127 1196,1133 1229,1133 1271,1133 1292,1118 1292,1087 L 1292,965 C 1292,929 1282,901 1262,881 L 442,47 C 390,-6 338,-33 285,-33 Z"/>
  </g>
  <g id="bullet-char-template-9679" transform="scale(0.00048828125,-0.00048828125)">
   <path d="M 813,0 C 632,0 489,54 383,161 276,268 223,411 223,592 223,773 276,916 383,1023 489,1130 632,1184 813,1184 992,1184 1136,1130 1245,1023 1353,916 1407,772 1407,592 1407,412 1353,268 1245,161 1136,54 992,0 813,0 Z"/>
  </g>
  <g id="bullet-char-template-8226" transform="scale(0.00048828125,-0.00048828125)">
   <path d="M 346,457 C 273,457 209,483 155,535 101,586 74,649 74,723 74,796 101,859 155,911 209,963 273,989 346,989 419,989 480,963 531,910 582,859 608,796 608,723 608,648 583,586 532,535 482,483 420,457 346,457 Z"/>
  </g>
  <g id="bullet-char-template-8211" transform="scale(0.00048828125,-0.00048828125)">
   <path d="M -4,459 L 1135,459 1135,606 -4,606 -4,459 Z"/>
  </g>
  <g id="bullet-char-template-61548" transform="scale(0.00048828125,-0.00048828125)">
   <path d="M 173,740 C 173,903 231,1043 346,1159 462,1274 601,1332 765,1332 928,1332 1067,1274 1183,1159 1299,1043 1357,903 1357,740 1357,577 1299,437 1183,322 1067,206 928,148 765,148 601,148 462,206 346,322 231,437 173,577 173,740 Z"/>
  </g>
 </defs>
 <defs class="TextEmbeddedBitmaps"/>
 <g>
  <g id="id2" class="Master_Slide">
   <g id="bg-id2" class="Background"/>
   <g id="bo-id2" class="BackgroundObjects"/>
  </g>
 </g>
 <g class="SlideGroup">
  <g>
   <g id="container-id1">
    <g id="id1" class="Slide" clip-path="url(#presentation_clip_path)">
     <g class="Page">
      <g class="com.sun.star.drawing.CustomShape">
       <g id="id3">
        <rect class="BoundingBox" stroke="none" fill="none" x="0" y="936" width="564" height="739"/>
        <g>
         <defs>
          <linearGradient id="gradient1" x1="281" y1="937" x2="281" y2="1674" gradientUnits="userSpaceOnUse">
           <stop offset="0" style="stop-color:rgb(255,255,0)"/>
           <stop offset="1" style="stop-color:rgb(255,69,0)"/>
          </linearGradient>
         </defs>
         <path style="fill:url(#gradient1)" d="M 55,1017 L 50,1019 45,1022 41,1025 37,1029 33,1033 29,1038 26,1042 24,1048 21,1053 19,1058 18,1064 17,1069 17,1075 17,1081 18,1086 20,1091 210,1635 212,1640 215,1645 218,1649 222,1653 226,1657 231,1661 235,1664 241,1667 246,1669 251,1671 257,1673 263,1674 268,1674 274,1674 279,1673 284,1671 507,1594 512,1591 517,1589 521,1585 526,1582 530,1577 533,1573 536,1568 539,1563 541,1557 543,1552 545,1546 546,1540 546,1535 546,1529 545,1524 543,1519 353,975 351,970 348,965 345,961 341,956 337,953 332,949 327,946 322,943 317,941 311,939 306,938 300,937 294,937 289,937 283,938 278,940 55,1017 Z"/>
        </g>
       </g>
      </g>
      <g class="com.sun.star.drawing.CustomShape">
       <g id="id4">
        <rect class="BoundingBox" stroke="none" fill="none" x="215" y="493" width="788" height="1390"/>
        <g>
         <defs>
          <linearGradient id="gradient2" x1="608" y1="494" x2="608" y2="1881" gradientUnits="userSpaceOnUse">
           <stop offset="0" style="stop-color:rgb(255,255,0)"/>
           <stop offset="1" style="stop-color:rgb(255,69,0)"/>
          </linearGradient>
         </defs>
         <path style="fill:url(#gradient2)" d="M 270,573 L 265,575 260,578 256,581 251,585 248,589 244,593 241,598 238,603 236,609 234,614 233,620 232,625 232,631 232,636 233,642 234,647 651,1842 653,1847 656,1852 659,1857 663,1861 667,1865 672,1868 677,1872 682,1874 687,1877 692,1879 698,1880 704,1881 709,1881 715,1881 720,1880 725,1879 945,1802 950,1800 955,1797 960,1794 964,1790 968,1786 971,1781 975,1776 977,1771 980,1766 982,1760 983,1755 984,1749 984,1743 984,1738 983,1732 982,1727 565,532 563,527 560,522 557,517 553,513 549,509 544,506 539,503 534,500 529,498 523,496 517,495 512,494 506,494 501,494 495,495 490,496 270,573 Z"/>
        </g>
       </g>
      </g>
      <g class="com.sun.star.drawing.CustomShape">
       <g id="id5">
        <rect class="BoundingBox" stroke="none" fill="none" x="700" y="589" width="1175" height="700"/>
        <g>
         <defs>
          <linearGradient id="gradient3" x1="1286" y1="590" x2="1286" y2="1287" gradientUnits="userSpaceOnUse">
           <stop offset="0" style="stop-color:rgb(255,255,0)"/>
           <stop offset="1" style="stop-color:rgb(255,69,0)"/>
          </linearGradient>
         </defs>
         <path style="fill:url(#gradient3)" d="M 1343,1102 L 812,1287 700,960 1761,590 1873,917 1343,1102 Z"/>
        </g>
       </g>
      </g>
      <g class="com.sun.star.drawing.CustomShape">
       <g id="id6">
        <rect class="BoundingBox" stroke="none" fill="none" x="218" y="493" width="788" height="1390"/>
        <g>
         <defs>
          <linearGradient id="gradient4" x1="611" y1="494" x2="611" y2="1881" gradientUnits="userSpaceOnUse">
           <stop offset="0" style="stop-color:rgb(255,255,0)"/>
           <stop offset="1" style="stop-color:rgb(255,69,0)"/>
          </linearGradient>
         </defs>
         <path style="fill:url(#gradient4)" d="M 273,573 L 268,575 263,578 259,581 254,585 251,589 247,593 244,598 241,603 239,609 237,614 236,620 235,625 235,631 235,636 236,642 237,647 654,1842 656,1847 659,1852 662,1857 666,1861 670,1865 675,1868 680,1872 685,1874 690,1877 695,1879 701,1880 707,1881 712,1881 718,1881 723,1880 728,1879 948,1802 953,1800 958,1797 963,1794 967,1790 971,1786 974,1781 978,1776 980,1771 983,1766 985,1760 986,1755 987,1749 987,1743 987,1738 986,1732 985,1727 568,532 566,527 563,522 560,517 556,513 552,509 547,506 542,503 537,500 532,498 526,496 520,495 515,494 509,494 504,494 498,495 493,496 273,573 Z"/>
        </g>
       </g>
      </g>
      <g class="com.sun.star.drawing.CustomShape">
       <g id="id7">
        <rect class="BoundingBox" stroke="none" fill="none" x="221" y="493" width="783" height="1392"/>
        <g>
         <defs>
          <linearGradient id="gradient5" x1="612" y1="494" x2="612" y2="1884" gradientUnits="userSpaceOnUse">
           <stop offset="0" style="stop-color:rgb(255,255,0)"/>
           <stop offset="1" style="stop-color:rgb(255,69,0)"/>
          </linearGradient>
         </defs>
         <path style="fill:url(#gradient5)" d="M 276,573 L 271,575 267,578 262,581 258,585 254,589 251,594 247,598 245,603 242,609 241,614 239,620 238,625 238,631 238,636 239,642 241,647 653,1845 655,1850 657,1855 661,1860 664,1864 668,1868 673,1871 678,1874 683,1877 688,1879 693,1881 699,1882 705,1883 710,1884 716,1883 721,1882 726,1881 946,1804 951,1802 956,1799 961,1796 965,1792 969,1788 972,1784 976,1779 978,1774 981,1768 983,1763 984,1757 985,1752 986,1746 985,1741 985,1735 983,1730 571,532 569,527 566,522 563,518 559,513 555,510 551,506 546,503 540,500 535,498 530,496 524,495 518,494 513,494 507,494 502,495 496,496 276,573 Z"/>
        </g>
       </g>
      </g>
      <g class="com.sun.star.drawing.CustomShape">
       <g id="id8">
        <rect class="BoundingBox" stroke="none" fill="none" x="1959" y="213" width="531" height="772"/>
        <g>
         <defs>
          <linearGradient id="gradient6" x1="2223" y1="230" x2="2223" y2="967" gradientUnits="userSpaceOnUse">
           <stop offset="0" style="stop-color:rgb(255,255,0)"/>
           <stop offset="1" style="stop-color:rgb(255,69,0)"/>
          </linearGradient>
         </defs>
         <path style="fill:url(#gradient6)" d="M 2221,233 L 2226,231 2232,230 2237,230 2243,230 2248,231 2254,232 2259,234 2265,237 2270,239 2275,242 2279,246 2283,250 2287,254 2290,258 2293,263 2295,268 2485,812 2487,817 2488,823 2488,828 2488,834 2487,839 2486,845 2484,851 2482,856 2479,861 2476,866 2472,871 2469,875 2464,879 2460,882 2455,885 2450,887 2227,964 2222,966 2217,967 2211,967 2205,967 2200,966 2194,964 2188,962 2183,960 2178,957 2173,954 2168,951 2164,947 2160,942 2157,938 2154,933 2152,928 1962,384 1960,379 1959,374 1959,368 1959,363 1960,357 1962,352 1964,346 1966,341 1969,336 1972,331 1976,326 1980,322 1984,318 1988,315 1993,312 1998,310 2221,233 Z"/>
        </g>
       </g>
      </g>
      <g class="com.sun.star.drawing.CustomShape">
       <g id="id9">
        <rect class="BoundingBox" stroke="none" fill="none" x="1516" y="-1" width="752" height="1426"/>
        <g>
         <defs>
          <linearGradient id="gradient7" x1="1891" y1="16" x2="1891" y2="1406" gradientUnits="userSpaceOnUse">
           <stop offset="0" style="stop-color:rgb(255,255,0)"/>
           <stop offset="1" style="stop-color:rgb(255,69,0)"/>
          </linearGradient>
         </defs>
         <path style="fill:url(#gradient7)" d="M 1776,18 L 1782,17 1787,16 1793,16 1798,16 1804,17 1809,18 1815,20 1820,22 1825,25 1830,28 1834,32 1839,36 1842,40 1845,44 1848,49 1850,54 2264,1252 2265,1257 2266,1262 2267,1268 2266,1274 2265,1279 2264,1285 2262,1290 2260,1296 2257,1301 2254,1306 2251,1310 2247,1315 2243,1318 2238,1322 2233,1324 2228,1327 2008,1404 2002,1405 1997,1406 1991,1406 1986,1406 1980,1405 1974,1404 1969,1402 1963,1399 1958,1397 1953,1393 1949,1390 1944,1386 1941,1382 1937,1377 1935,1372 1933,1367 1519,170 1517,164 1517,159 1516,154 1517,148 1518,142 1519,137 1521,131 1523,126 1526,121 1529,116 1533,111 1537,107 1541,104 1546,100 1551,98 1556,95 1776,18 Z"/>
        </g>
       </g>
      </g>
     </g>
    </g>
   </g>
  </g>
 </g>
</svg>