<?xml version="1.0" encoding="UTF-8"?>
<!DOCTYPE svg PUBLIC "-//W3C//DTD SVG 1.1//EN" "http://www.w3.org/Graphics/SVG/1.1/DTD/svg11.dtd">
<svg version="1.2" width="23mm" height="12mm" viewBox="0 0 2300 1200" preserveAspectRatio="xMidYMid" fill-rule="evenodd" stroke-width="28.222" stroke-linejoin="round" xmlns="http://www.w3.org/2000/svg" xmlns:ooo="http://xml.openoffice.org/svg/export" xmlns:xlink="http://www.w3.org/1999/xlink" xmlns:presentation="http://sun.com/xmlns/staroffice/presentation" xmlns:smil="http://www.w3.org/2001/SMIL20/" xmlns:anim="urn:oasis:names:tc:opendocument:xmlns:animation:1.0" xml:space="preserve">
 <defs class="ClipPathGroup">
  <clipPath id="presentation_clip_path" clipPathUnits="userSpaceOnUse">
   <rect x="0" y="0" width="2300" height="1200"/>
  </clipPath>
  <clipPath id="presentation_clip_path_shrink" clipPathUnits="userSpaceOnUse">
   <rect x="2" y="1" width="2296" height="1198"/>
  </clipPath>
 </defs>
 <defs class="TextShapeIndex">
  <g ooo:slide="id1" ooo:id-list="id3 id4 id5 id6 id7"/>
 </defs>
 <defs class="EmbeddedBulletChars">
  <g id="bullet-char-template-57356" transform="scale(0.00048828125,-0.00048828125)">
   <path d="M 580,1141 L 1163,571 580,0 -4,571 580,1141 Z"/>
  </g>
  <g id="bullet-char-template-57354" transform="scale(0.00048828125,-0.00048828125)">
   <path d="M 8,1128 L 1137,1128 1137,0 8,0 8,1128 Z"/>
  </g>
  <g id="bullet-char-template-10146" transform="scale(0.00048828125,-0.00048828125)">
   <path d="M 174,0 L 602,739 174,1481 1456,739 174,0 Z M 1358,739 L 309,1346 659,739 1358,739 Z"/>
  </g>
  <g id="bullet-char-template-10132" transform="scale(0.00048828125,-0.00048828125)">
   <path d="M 2015,739 L 1276,0 717,0 1260,543 174,543 174,936 1260,936 717,1481 1274,1481 2015,739 Z"/>
  </g>
  <g id="bullet-char-template-10007" transform="scale(0.00048828125,-0.00048828125)">
   <path d="M 0,-2 C -7,14 -16,27 -25,37 L 356,567 C 262,823 215,952 215,954 215,979 228,992 255,992 264,992 276,990 289,987 310,991 331,999 354,1012 L 381,999 492,748 772,1049 836,1024 860,1049 C 881,1039 901,1025 922,1006 886,937 835,863 770,784 769,783 710,716 594,584 L 774,223 C 774,196 753,168 711,139 L 727,119 C 717,90 699,76 672,76 641,76 570,178 457,381 L 164,-76 C 142,-110 111,-127 72,-127 30,-127 9,-110 8,-76 1,-67 -2,-52 -2,-32 -2,-23 -1,-13 0,-2 Z"/>
  </g>
  <g id="bullet-char-template-10004" transform="scale(0.00048828125,-0.00048828125)">
   <path d="M 285,-33 C 182,-33 111,30 74,156 52,228 41,333 41,471 41,549 55,616 82,672 116,743 169,778 240,778 293,778 328,747 346,684 L 369,508 C 377,444 397,411 428,410 L 1163,1116 C 1174,1127 1196,1133 1229,1133 1271,1133 1292,1118 1292,1087 L 1292,965 C 1292,929 1282,901 1262,881 L 442,47 C 390,-6 338,-33 285,-33 Z"/>
  </g>
  <g id="bullet-char-template-9679" transform="scale(0.00048828125,-0.00048828125)">
   <path d="M 813,0 C 632,0 489,54 383,161 276,268 223,411 223,592 223,773 276,916 383,1023 489,1130 632,1184 813,1184 992,1184 1136,1130 1245,1023 1353,916 1407,772 1407,592 1407,412 1353,268 1245,161 1136,54 992,0 813,0 Z"/>
  </g>
  <g id="bullet-char-template-8226" transform="scale(0.00048828125,-0.00048828125)">
   <path d="M 346,457 C 273,457 209,483 155,535 101,586 74,649 74,723 74,796 101,859 155,911 209,963 273,989 346,989 419,989 480,963 531,910 582,859 608,796 608,723 608,648 583,586 532,535 482,483 420,457 346,457 Z"/>
  </g>
  <g id="bullet-char-template-8211" transform="scale(0.00048828125,-0.00048828125)">
   <path d="M -4,459 L 1135,459 1135,606 -4,606 -4,459 Z"/>
  </g>
  <g id="bullet-char-template-61548" transform="scale(0.00048828125,-0.00048828125)">
   <path d="M 173,740 C 173,903 231,1043 346,1159 462,1274 601,1332 765,1332 928,1332 1067,1274 1183,1159 1299,1043 1357,903 1357,740 1357,577 1299,437 1183,322 1067,206 928,148 765,148 601,148 462,206 346,322 231,437 173,577 173,740 Z"/>
  </g>
 </defs>
 <defs class="TextEmbeddedBitmaps"/>
 <g>
  <g id="id2" class="Master_Slide">
   <g id="bg-id2" class="Background"/>
   <g id="bo-id2" class="BackgroundObjects"/>
  </g>
 </g>
 <g class="SlideGroup">
  <g>
   <g id="container-id1">
    <g id="id1" class="Slide" clip-path="url(#presentation_clip_path)">
     <g class="Page">
      <g class="com.sun.star.drawing.CustomShape">
       <g id="id3">
        <rect class="BoundingBox" stroke="none" fill="none" x="0" y="200" width="302" height="802"/>
        <g>
         <defs>
          <linearGradient id="gradient1" x1="-61" y1="235" x2="362" y2="966" gradientUnits="userSpaceOnUse">
           <stop offset="0" style="stop-color:rgb(255,255,0)"/>
           <stop offset="1" style="stop-color:rgb(255,69,0)"/>
          </linearGradient>
         </defs>
         <path style="fill:url(#gradient1)" d="M 50,200 L 45,200 41,201 36,202 32,204 27,207 23,209 19,212 16,216 12,219 9,223 7,227 4,232 2,236 1,241 0,245 0,250 0,950 0,955 1,959 2,964 4,969 7,973 9,977 12,981 16,985 19,988 23,991 27,994 32,997 36,998 41,1000 45,1001 50,1001 250,1001 255,1001 259,1000 264,998 269,997 273,994 277,991 281,988 285,985 288,981 291,977 294,973 297,969 298,964 300,959 301,955 301,950 301,250 301,245 300,241 298,236 297,232 294,227 291,223 288,219 285,216 281,212 277,209 273,207 269,204 264,202 259,201 255,200 250,200 50,200 Z"/>
        </g>
       </g>
      </g>
      <g class="com.sun.star.drawing.CustomShape">
       <g id="id4">
        <rect class="BoundingBox" stroke="none" fill="none" x="300" y="0" width="402" height="1202"/>
        <g>
         <defs>
          <linearGradient id="gradient2" x1="190" y1="63" x2="811" y2="1138" gradientUnits="userSpaceOnUse">
           <stop offset="0" style="stop-color:rgb(255,255,0)"/>
           <stop offset="1" style="stop-color:rgb(255,69,0)"/>
          </linearGradient>
         </defs>
         <path style="fill:url(#gradient2)" d="M 366,0 L 360,0 354,1 348,3 342,6 336,9 331,12 325,16 321,21 316,25 312,31 309,36 306,42 303,48 301,54 300,60 300,66 300,1134 300,1140 301,1146 303,1152 306,1158 309,1164 312,1170 316,1175 321,1180 325,1184 331,1189 336,1192 342,1195 348,1198 354,1199 360,1201 366,1201 634,1201 640,1201 646,1199 652,1198 658,1195 664,1192 670,1189 675,1184 680,1180 684,1175 689,1170 692,1164 695,1158 698,1152 699,1146 701,1140 701,1134 701,66 701,60 699,54 698,48 695,42 692,36 689,31 684,25 680,21 675,16 670,12 664,9 658,6 652,3 646,1 640,0 634,0 366,0 Z"/>
        </g>
       </g>
      </g>
      <g class="com.sun.star.drawing.CustomShape">
       <g id="id5">
        <rect class="BoundingBox" stroke="none" fill="none" x="1999" y="200" width="302" height="802"/>
        <g>
         <defs>
          <linearGradient id="gradient3" x1="1938" y1="235" x2="2361" y2="966" gradientUnits="userSpaceOnUse">
           <stop offset="0" style="stop-color:rgb(255,255,0)"/>
           <stop offset="1" style="stop-color:rgb(255,69,0)"/>
          </linearGradient>
         </defs>
         <path style="fill:url(#gradient3)" d="M 2250,200 L 2255,200 2259,201 2264,202 2268,204 2273,207 2277,209 2281,212 2284,216 2288,219 2291,223 2293,227 2296,232 2298,236 2299,241 2300,245 2300,250 2300,950 2300,955 2299,959 2298,964 2296,969 2293,973 2291,977 2288,981 2284,985 2281,988 2277,991 2273,994 2268,997 2264,998 2259,1000 2255,1001 2250,1001 2050,1001 2045,1001 2041,1000 2036,998 2031,997 2027,994 2023,991 2019,988 2015,985 2012,981 2009,977 2006,973 2003,969 2002,964 2000,959 1999,955 1999,950 1999,250 1999,245 2000,241 2002,236 2003,232 2006,227 2009,223 2012,219 2015,216 2019,212 2023,209 2027,207 2031,204 2036,202 2041,201 2045,200 2050,200 2250,200 Z"/>
        </g>
       </g>
      </g>
      <g class="com.sun.star.drawing.CustomShape">
       <g id="id6">
        <rect class="BoundingBox" stroke="none" fill="none" x="1598" y="0" width="403" height="1202"/>
        <g>
         <defs>
          <linearGradient id="gradient4" x1="1489" y1="63" x2="2110" y2="1138" gradientUnits="userSpaceOnUse">
           <stop offset="0" style="stop-color:rgb(255,255,0)"/>
           <stop offset="1" style="stop-color:rgb(255,69,0)"/>
          </linearGradient>
         </defs>
         <path style="fill:url(#gradient4)" d="M 1934,0 L 1940,0 1946,1 1952,3 1958,6 1964,9 1969,12 1975,16 1979,21 1984,25 1988,31 1991,36 1994,42 1997,48 1999,54 2000,60 2000,66 2000,1134 2000,1140 1999,1146 1997,1152 1994,1158 1991,1164 1988,1170 1984,1175 1979,1180 1975,1184 1969,1189 1964,1192 1958,1195 1952,1198 1946,1199 1940,1201 1934,1201 1666,1201 1660,1201 1654,1199 1648,1198 1642,1195 1636,1192 1630,1189 1625,1184 1620,1180 1616,1175 1611,1170 1608,1164 1605,1158 1602,1152 1601,1146 1599,1140 1599,1134 1599,66 1599,60 1601,54 1602,48 1605,42 1608,36 1611,31 1616,25 1620,21 1625,16 1630,12 1636,9 1642,6 1648,3 1654,1 1660,0 1666,0 1934,0 Z"/>
        </g>
       </g>
      </g>
      <g class="com.sun.star.drawing.CustomShape">
       <g id="id7">
        <rect class="BoundingBox" stroke="none" fill="none" x="700" y="400" width="901" height="401"/>
        <g>
         <defs>
          <linearGradient id="gradient5" x1="951" y1="255" x2="1349" y2="945" gradientUnits="userSpaceOnUse">
           <stop offset="0" style="stop-color:rgb(255,255,0)"/>
           <stop offset="1" style="stop-color:rgb(255,69,0)"/>
          </linearGradient>
         </defs>
         <path style="fill:url(#gradient5)" d="M 1150,800 L 700,800 700,400 1600,400 1600,800 1150,800 Z"/>
        </g>
       </g>
      </g>
     </g>
    </g>
   </g>
  </g>
 </g>
</svg>