<?xml version="1.0" encoding="utf-8"?>
<!-- Generator: Adobe Illustrator 16.0.0, SVG Export Plug-In . SVG Version: 6.00 Build 0)  -->
<!DOCTYPE svg PUBLIC "-//W3C//DTD SVG 1.1//EN" "http://www.w3.org/Graphics/SVG/1.1/DTD/svg11.dtd">
<svg version="1.1" id="Layer_1" xmlns="http://www.w3.org/2000/svg" xmlns:xlink="http://www.w3.org/1999/xlink" x="0px" y="0px"
	 width="110px" height="110px" viewBox="0 0 110 110" enable-background="new 0 0 110 110" xml:space="preserve">
<g>
	<rect x="15" y="17" fill="#FFFFFF" width="80" height="68"/>
	<g>
		<linearGradient id="SVGID_1_" gradientUnits="userSpaceOnUse" x1="13.9634" y1="12.6987" x2="96.1328" y2="94.8681">
			<stop  offset="0" style="stop-color:#FCA34E"/>
			<stop  offset="1" style="stop-color:#FA782A"/>
		</linearGradient>
		<path fill="url(#SVGID_1_)" d="M89.07,10H21.295C15.058,10,10,15.144,10,21.381v58.738c0,5.466,4,10.023,9,11.069V100h6.362
			l4.722-8h50.198l4.722,8H91v-8.812c5-1.046,9-5.604,9-11.069V21.381C100,15.144,95.309,10,89.07,10z M91,77.482
			C91,79.978,88.977,82,86.482,82H23.518C21.023,82,19,79.978,19,77.482V59.518C19,57.022,21.023,55,23.518,55h62.965
			C88.977,55,91,57.022,91,59.518V77.482z M91,42.482C91,44.978,88.977,47,86.482,47H23.518C21.023,47,19,44.978,19,42.482V24.518
			C19,22.022,21.023,20,23.518,20h62.965C88.977,20,91,22.022,91,24.518V42.482z"/>
		<linearGradient id="SVGID_2_" gradientUnits="userSpaceOnUse" x1="50.9009" y1="27.4009" x2="59.1003" y2="35.6003">
			<stop  offset="0" style="stop-color:#FCA34E"/>
			<stop  offset="1" style="stop-color:#FA782A"/>
		</linearGradient>
		<path fill="url(#SVGID_2_)" d="M59.779,29h-9.559C48.994,29,48,29.994,48,31.22v0.561c0,1.226,0.994,2.22,2.221,2.22h9.559
			C61.006,34,62,33.006,62,31.78V31.22C62,29.994,61.006,29,59.779,29z"/>
		<linearGradient id="SVGID_3_" gradientUnits="userSpaceOnUse" x1="50.9014" y1="62.4014" x2="59.1008" y2="70.6008">
			<stop  offset="0" style="stop-color:#FCA34E"/>
			<stop  offset="1" style="stop-color:#FA782A"/>
		</linearGradient>
		<path fill="url(#SVGID_3_)" d="M59.779,64h-9.559C48.994,64,48,64.994,48,66.221v0.559C48,68.006,48.994,69,50.221,69h9.559
			C61.006,69,62,68.006,62,66.779v-0.559C62,64.994,61.006,64,59.779,64z"/>
	</g>
</g>
<g>
	<linearGradient id="SVGID_4_" gradientUnits="userSpaceOnUse" x1="13.9634" y1="12.6987" x2="96.1328" y2="94.8681">
		<stop  offset="0" style="stop-color:#FCA34E"/>
		<stop  offset="1" style="stop-color:#FA782A"/>
	</linearGradient>
	<path fill="url(#SVGID_4_)" d="M89.07,10H21.295C15.058,10,10,15.144,10,21.381v58.738c0,5.466,4,10.023,9,11.069V100h6.362
		l4.722-8h50.198l4.722,8H91v-8.812c5-1.046,9-5.604,9-11.069V21.381C100,15.144,95.309,10,89.07,10z M91,77.482
		C91,79.978,88.977,82,86.482,82H23.518C21.023,82,19,79.978,19,77.482V59.518C19,57.022,21.023,55,23.518,55h62.965
		C88.977,55,91,57.022,91,59.518V77.482z M91,42.482C91,44.978,88.977,47,86.482,47H23.518C21.023,47,19,44.978,19,42.482V24.518
		C19,22.022,21.023,20,23.518,20h62.965C88.977,20,91,22.022,91,24.518V42.482z"/>
	<linearGradient id="SVGID_5_" gradientUnits="userSpaceOnUse" x1="50.9009" y1="27.4009" x2="59.1003" y2="35.6003">
		<stop  offset="0" style="stop-color:#FCA34E"/>
		<stop  offset="1" style="stop-color:#FA782A"/>
	</linearGradient>
	<path fill="url(#SVGID_5_)" d="M59.779,29h-9.559C48.994,29,48,29.994,48,31.22v0.561c0,1.226,0.994,2.22,2.221,2.22h9.559
		C61.006,34,62,33.006,62,31.78V31.22C62,29.994,61.006,29,59.779,29z"/>
	<linearGradient id="SVGID_6_" gradientUnits="userSpaceOnUse" x1="50.9014" y1="62.4014" x2="59.1008" y2="70.6008">
		<stop  offset="0" style="stop-color:#FCA34E"/>
		<stop  offset="1" style="stop-color:#FA782A"/>
	</linearGradient>
	<path fill="url(#SVGID_6_)" d="M59.779,64h-9.559C48.994,64,48,64.994,48,66.221v0.559C48,68.006,48.994,69,50.221,69h9.559
		C61.006,69,62,68.006,62,66.779v-0.559C62,64.994,61.006,64,59.779,64z"/>
</g>
</svg>
