<?xml version="1.0" encoding="utf-8"?>
<!-- Generator: Adobe Illustrator 16.0.0, SVG Export Plug-In . SVG Version: 6.00 Build 0)  -->
<!DOCTYPE svg PUBLIC "-//W3C//DTD SVG 1.1//EN" "http://www.w3.org/Graphics/SVG/1.1/DTD/svg11.dtd">
<svg version="1.1" id="Layer_1" xmlns="http://www.w3.org/2000/svg" xmlns:xlink="http://www.w3.org/1999/xlink" x="0px" y="0px"
	 width="180px" height="180px" viewBox="0 0 180 180" enable-background="new 0 0 180 180" xml:space="preserve">
<linearGradient id="SVGID_1_" gradientUnits="userSpaceOnUse" x1="33.5557" y1="33.1123" x2="147.2928" y2="146.8495">
	<stop  offset="0" style="stop-color:#4CC5FF"/>
	<stop  offset="1" style="stop-color:#27AAFF"/>
</linearGradient>
<circle fill="url(#SVGID_1_)" cx="90.424" cy="89.98" r="80.424"/>
<g>
	<path fill="#FFFFFF" d="M59,71.797C59,73.014,58.014,74,56.797,74h-9.594C45.986,74,45,73.014,45,71.797v-0.594
		C45,69.986,45.986,69,47.203,69h9.594C58.014,69,59,69.986,59,71.203V71.797z"/>
	<path fill="#FFFFFF" d="M132.549,61.374c-0.797-0.549-1.758-0.374-2.793-0.374H72.329l-2.747-10.515
		C69.319,48.006,67.229,46,64.657,46H54.246c-2.749,0-4.977,2.286-4.977,5c0,2.713,2.228,5,4.977,5h6.621l15.97,60.633
		c0.265,1.125,0.899,1.804,1.729,2.477c0.288,0.41,0.642,0.642,1.036,0.95c-0.177-0.013-0.353-0.09-0.533-0.09
		c-4.142,0-7.5,3.326-7.5,7.468c0,4.144,3.358,7.485,7.5,7.485c4.142,0,7.501-2.865,7.501-7.009c0-2.718-1.452-4.914-3.617-5.914
		h29.076c-2.165,1-3.616,3.188-3.616,5.906c0,4.144,3.358,7.251,7.5,7.251c4.143,0,7.501-3.482,7.501-7.626
		c0-3.226-2.042-6.03-4.899-7.089c1.564-0.854,2.641-2.036,2.641-3.911c0-2.714-2.229-4.531-4.977-4.531H85.651l-1.567-6h38.181
		c1.567,0,2.948-1.162,3.86-2.276c1.072-0.709,1.875-2.082,2.146-3.45l6.797-33.689C135.504,64.377,134.414,62.372,132.549,61.374z
		 M74.941,71h49.34l-5.025,25H82.622c-0.386,0-0.758,0.049-1.118,0.124L74.941,71z"/>
	<path fill="#FFFFFF" d="M63,84.797C63,86.014,62.014,87,60.797,87h-9.594C49.986,87,49,86.014,49,84.797v-0.594
		C49,82.986,49.986,82,51.203,82h9.594C62.014,82,63,82.986,63,84.203V84.797z"/>
	<path fill="#FFFFFF" d="M66,96.797C66,98.014,65.014,99,63.797,99h-9.594C52.986,99,52,98.014,52,96.797v-0.594
		C52,94.986,52.986,94,54.203,94h9.594C65.014,94,66,94.986,66,96.203V96.797z"/>
</g>
</svg>
