<?xml version="1.0" encoding="utf-8"?>
<!-- Generator: Adobe Illustrator 16.0.0, SVG Export Plug-In . SVG Version: 6.00 Build 0)  -->
<!DOCTYPE svg PUBLIC "-//W3C//DTD SVG 1.1//EN" "http://www.w3.org/Graphics/SVG/1.1/DTD/svg11.dtd">
<svg version="1.1" id="Layer_1" xmlns="http://www.w3.org/2000/svg" xmlns:xlink="http://www.w3.org/1999/xlink" x="0px" y="0px"
	 width="180px" height="180px" viewBox="0 0 180 180" enable-background="new 0 0 180 180" xml:space="preserve">
<linearGradient id="SVGID_1_" gradientUnits="userSpaceOnUse" x1="33.5557" y1="33.1123" x2="147.2928" y2="146.8495">
	<stop  offset="0" style="stop-color:#6245DB"/>
	<stop  offset="1" style="stop-color:#2D1EC2"/>
</linearGradient>
<circle fill="url(#SVGID_1_)" cx="90.424" cy="89.98" r="80.424"/>
<path fill="#FFFFFF" d="M132.603,80h-7.111l-9.495-16.857l-0.037-0.031c-0.809-1.807-2.617-3.07-4.725-3.07
	c-0.071,0-0.143,0.006-0.214,0.009l-0.01-0.007l-20.554,0.023l-20.553-0.024l-0.01,0.006c-0.071-0.003-0.143-0.012-0.214-0.012
	c-2.106,0-3.915,1.26-4.724,3.065l-0.039,0.041L55.424,80h-8.406C45.902,80,45,81.044,45,82.42c0,0,0,2.307,0,2.652
	c0,1.376,1.631,2.375,4.968,3.764c0.108,0.045,0.242,0.09,0.391,0.134c-0.317,0.659-1.229,2.773-1.188,5.27
	c0.064,4.002,0.002,13.23,0.002,13.23c-0.003,1.897,1.179,3.482,2.828,4.139v6.523c0,2.116,1.715,3.868,3.831,3.868h7.338
	c2.116,0,3.831-1.752,3.831-3.868v-6.229c10.101-0.024,22.422-0.056,23.457-0.058c1.005,0.002,12.628,0.031,22.543,0.056v6.231
	c0,2.116,1.715,3.868,3.83,3.868h7.34c2.115,0,3.83-1.752,3.83-3.868v-6.272c2.109-0.359,3.747-2.157,3.744-4.39
	c0,0-0.062-9.229,0.002-13.23c0.049-3.02-1.299-5.486-1.299-5.486l-0.138-0.245c2.879-1.223,4.69-2.172,4.69-3.436
	c0-0.346,0-2.652,0-2.652C135,81.044,133.717,80,132.603,80z M74,102.527c0,1.365-1.107,2.473-2.473,2.473H61.473
	c-1.365,0-2.473-1.107-2.473-2.473v-0.055c0-1.365,1.107-2.473,2.473-2.473h10.055c1.365,0,2.473,1.107,2.473,2.473V102.527z
	 M70.768,97h-9.045C59.643,97,59,95.78,59,93.339c0-3.63,1.596-4.165,3.678-4.171c1.716-0.004,4.204,0.86,5.938,1.617
	C69.872,91.333,74,93.081,74,94.581C74,96.25,72.848,97,70.768,97z M68.906,81c-5.048,0-6.121-2.403-4.691-5.407l2.566-6.081
	C68.628,65.955,70.003,65,72.888,65c2.266,0,31.167,0,33.538,0c2.885,0,4.26,0.979,6.106,4.536l3.597,6.151
	c1.43,3.004,0.356,5.312-4.691,5.312H68.906z M122,102.527c0,1.365-1.107,2.473-2.473,2.473h-10.055
	c-1.365,0-2.473-1.107-2.473-2.473v-0.055c0-1.365,1.107-2.473,2.473-2.473h10.055c1.365,0,2.473,1.107,2.473,2.473V102.527z
	 M119.277,97h-9.045c-2.08,0-3.232-0.752-3.232-2.421c0-1.5,4.128-3.241,5.385-3.79c1.733-0.756,4.222-1.629,5.938-1.625
	c2.082,0.005,3.678,0.547,3.678,4.177C122,95.782,121.357,97,119.277,97z"/>
</svg>
