<?xml version="1.0" encoding="utf-8"?>
<!-- Generator: Adobe Illustrator 16.0.0, SVG Export Plug-In . SVG Version: 6.00 Build 0)  -->
<!DOCTYPE svg PUBLIC "-//W3C//DTD SVG 1.1//EN" "http://www.w3.org/Graphics/SVG/1.1/DTD/svg11.dtd">
<svg version="1.1" id="Layer_1" xmlns="http://www.w3.org/2000/svg" xmlns:xlink="http://www.w3.org/1999/xlink" x="0px" y="0px"
	 width="180px" height="180px" viewBox="0 0 180 180" enable-background="new 0 0 180 180" xml:space="preserve">
<linearGradient id="SVGID_1_" gradientUnits="userSpaceOnUse" x1="33.5557" y1="33.1123" x2="147.2928" y2="146.8495">
	<stop  offset="0" style="stop-color:#41D1B0"/>
	<stop  offset="1" style="stop-color:#1FBA87"/>
</linearGradient>
<circle fill="url(#SVGID_1_)" cx="90.424" cy="89.98" r="80.424"/>
<g>
	<path fill="#FFFFFF" d="M132.934,81.688L120,69.866V54.969c0-2.744-2.225-4.969-4.969-4.969h-0.062
		c-2.744,0-4.969,2.225-4.969,4.969v5.758L93.812,45.932c-1.076-0.984-2.465-1.394-3.812-1.274c-1.348-0.119-2.736,0.29-3.812,1.274
		L47.066,81.688c-2.038,1.863-2.18,5.025-0.317,7.064c1.863,2.037,5.026,2.18,7.064,0.316L55,87.983V130c0,2.762,2.239,5,5,5h21.92
		h16.16H120c2.762,0,5-2.238,5-5V87.983l1.188,1.085c2.038,1.863,5.201,1.721,7.064-0.316
		C135.114,86.713,134.973,83.551,132.934,81.688z M98,125H82v-16.797c0-1.77,1.434-3.203,3.203-3.203h9.594
		c1.77,0,3.203,1.434,3.203,3.203V125z M115,125h-10v-20.08c0-3.822-3.098-6.92-6.92-6.92H81.92c-3.822,0-6.92,3.098-6.92,6.92V125
		H65V78.844l25-22.85l25,22.85V125z"/>
	<path fill="#FFFFFF" d="M75,84.066v0.867C75,86.627,76.372,88,78.064,88h23.871c1.692,0,3.064-1.373,3.064-3.066v-0.867
		c0-1.693-1.372-3.066-3.064-3.066H78.064C76.372,81,75,82.373,75,84.066z"/>
</g>
</svg>
