<?xml version="1.0" encoding="utf-8"?>
<!-- Generator: Adobe Illustrator 16.0.0, SVG Export Plug-In . SVG Version: 6.00 Build 0)  -->
<!DOCTYPE svg PUBLIC "-//W3C//DTD SVG 1.1//EN" "http://www.w3.org/Graphics/SVG/1.1/DTD/svg11.dtd">
<svg version="1.1" id="Layer_1" xmlns="http://www.w3.org/2000/svg" xmlns:xlink="http://www.w3.org/1999/xlink" x="0px" y="0px"
	 width="110px" height="110px" viewBox="0 0 110 110" enable-background="new 0 0 110 110" xml:space="preserve">
<linearGradient id="SVGID_1_" gradientUnits="userSpaceOnUse" x1="28.0732" y1="15.229" x2="80.4443" y2="105.9384">
	<stop  offset="0" style="stop-color:#B75CF2"/>
	<stop  offset="1" style="stop-color:#8E28E5"/>
</linearGradient>
<path fill="url(#SVGID_1_)" d="M100.117,38.844c-0.212-7.184-5.07-12.402-11.479-13.432c0.332-0.504,0.527-1.104,0.527-1.753
	c0-1.767-1.433-3.199-3.199-3.199c-1.768,0-3.2,1.433-3.2,3.199c0,0.569,0.161,1.097,0.422,1.56l-14.456,0.021
	c0.269-0.468,0.434-1.003,0.434-1.58c0-1.767-1.433-3.199-3.199-3.199c-1.768,0-3.2,1.433-3.2,3.199
	c0,0.581,0.167,1.118,0.437,1.588l-14.844,0.021c1.145-1.612,1.823-3.576,1.823-5.703c0-5.453-4.421-9.872-9.874-9.872
	c-5.451,0-9.871,4.419-9.871,9.872c0,2.138,0.686,4.11,1.84,5.726l-8.645,0.013C16.143,25.908,11,31.8,11,38.943v47.709
	c0,7.131,5.143,13.01,12.633,13.615l62.723-0.012c7.532,0,13.652-5.469,13.89-13.504L100.117,38.844z M40.309,16.276
	c1.82,0,3.293,1.474,3.293,3.289c0,1.818-1.473,3.29-3.293,3.29c-1.816,0-3.289-1.472-3.289-3.29
	C37.02,17.75,38.492,16.276,40.309,16.276z M20,70.209c4,1.66,10.535,3.211,20.487,3.211c11.525,0,16.778-1.971,21.491-3.711
	c3.723-1.375,7.071-2.562,13.088-2.562c8.638,0,13.934,1.72,16.934,3.091v4.093c-4-1.393-9.292-2.663-16.978-2.663
	c-6.911,0-10.776,1.395-14.776,2.871c-4.53,1.673-9.083,3.402-19.715,3.402C29.306,77.94,23,75.818,20,74.221V70.209z
	 M75.022,62.146c-6.911,0-10.776,1.395-14.776,2.871c-4.53,1.674-9.083,3.402-19.715,3.402C29.306,68.42,23,66.299,20,64.701v-12.25
	c1,0.914,3.141,1.437,5.057,1.437c3.093,0,5.77-1.243,7.646-3.411c1.877,2.168,4.6,3.613,7.692,3.613
	c3.094,0,5.837-1.345,7.714-3.512c1.877,2.167,4.633,3.562,7.727,3.562c3.092,0,5.853-1.37,7.73-3.538
	c1.876,2.168,4.64,3.55,7.732,3.55s5.857-1.375,7.734-3.543c1.877,2.168,4.82,3.277,7.912,3.277c1.768,0,3.055-0.438,5.055-1.222
	v12.146C88,63.418,82.708,62.146,75.022,62.146z M24.131,34.46c0,0,62.568-0.194,62.57-0.194c2.553,0,4.299,1.194,5.299,4.194v6.737
	c-1,2.045-2.798,3.393-5.055,3.393c-2.81,0-5.175-2.074-5.279-5.008c0.011-0.094-0.016-0.186-0.016-0.283
	c0-1.412-1.168-2.559-2.582-2.559s-2.57,0.916-2.57,2.328c0,0.057,0.002-0.068,0.005-0.068H76.5c-0.042,3-2.354,5.359-5.203,5.359
	c-2.721,0-4.928-1.835-5.162-4.621c0.039-0.178,0.064-0.306,0.064-0.497c0-1.412-1.146-2.529-2.561-2.529s-2.56,0.931-2.56,2.343
	c0,0.056,0.013-0.055,0.017-0.055h-0.067c-0.042,3-2.354,5.13-5.204,5.13c-2.851,0-5.162-2.13-5.205-5.13H50.59
	c0.004,0,0.016,0.125,0.016,0.068c0-1.412-1.146-2.443-2.559-2.443c-1.414,0-2.561,1.204-2.561,2.616c0,0.141,0.02,0.307,0.042,0.44
	c-0.167,2.863-2.409,4.894-5.177,4.894c-2.795,0-5.06-2.047-5.186-4.955c0.014-0.109,0.033-0.212,0.033-0.325
	c0-1.412-1.146-2.557-2.561-2.557s-2.56,0.918-2.56,2.33c0,0.056,0.013-0.068,0.017-0.068h-0.013c-0.042,3-2.354,5.13-5.204,5.13
	S19.717,46,19.676,43H20v-3.963C20,36.627,21.438,34.46,24.131,34.46z M86.613,91.654c-0.002,0-62.327-0.194-62.327-0.194
	c-2.692,0-4.286-2.517-4.286-4.927v-6.805c4,1.661,10.535,3.212,20.487,3.212c11.525,0,16.778-1.972,21.491-3.712
	c3.723-1.375,7.071-2.562,13.088-2.562c8.638,0,13.934,1.719,16.934,3.09v7.703C91,90.46,89.166,91.654,86.613,91.654z"/>
</svg>
