<?xml version="1.0" encoding="utf-8"?>
<!-- Generator: Adobe Illustrator 16.0.0, SVG Export Plug-In . SVG Version: 6.00 Build 0)  -->
<!DOCTYPE svg PUBLIC "-//W3C//DTD SVG 1.1//EN" "http://www.w3.org/Graphics/SVG/1.1/DTD/svg11.dtd">
<svg version="1.1" id="Layer_1" xmlns="http://www.w3.org/2000/svg" xmlns:xlink="http://www.w3.org/1999/xlink" x="0px" y="0px"
	 width="180px" height="180px" viewBox="0 0 180 180" enable-background="new 0 0 180 180" xml:space="preserve">
<linearGradient id="SVGID_1_" gradientUnits="userSpaceOnUse" x1="33.5557" y1="33.1123" x2="147.2928" y2="146.8495">
	<stop  offset="0" style="stop-color:#FEDD00"/>
	<stop  offset="1" style="stop-color:#F4C604"/>
</linearGradient>
<circle fill="url(#SVGID_1_)" cx="90.424" cy="89.98" r="80.424"/>
<g>
	<path fill="#FFFFFF" d="M91.031,75.377c0,0-0.162,0.015,0,0.047C91.192,75.392,91.031,75.377,91.031,75.377z"/>
	<path fill="#FFFFFF" d="M91.031,75.476c-2.287,0.511-12.844,3.3-22.852,14.535c-7.378,8.278-12.04,22.278-8.93,30.199
		c3.084,7.856,10.37,13.559,20.343,13.914c6.647,0.238,10.319-5.697,11.495-7.998c1.176,2.301,4.854,8.236,11.502,7.998
		c9.973-0.355,17.207-6.058,20.292-13.914c3.11-7.921-1.577-21.921-8.954-30.199C103.918,78.775,93.318,75.986,91.031,75.476z"/>
	<path fill="#FFFFFF" d="M78.155,69.808c5.646-0.631,9.716-5.781,9.087-11.428c0,0-3.588-18.752-12.43-18.752
		c-8.023,1.144-8.023,21.002-8.023,21.002C67.42,66.277,72.51,70.437,78.155,69.808z"/>
	<path fill="#FFFFFF" d="M103.391,69.808c5.646,0.629,10.736-3.53,11.365-9.178c0,0,0-19.858-8.023-21.002
		c-8.842,0-12.429,18.752-12.429,18.752C93.675,64.026,97.744,69.177,103.391,69.808z"/>
	<path fill="#FFFFFF" d="M62.777,74.457c0,0-12.037-11.461-18.298-6.983c-5.102,4.873,4.956,18.934,4.956,18.934
		c3.305,3.68,9.016,4.048,12.695,0.744C65.809,83.844,66.082,78.136,62.777,74.457z"/>
	<path fill="#FFFFFF" d="M135.695,67.474c-6.261-4.478-18.299,6.983-18.299,6.983c-3.305,3.679-3.031,9.387,0.647,12.694
		c3.68,3.304,9.39,2.936,12.695-0.744C130.739,86.407,140.797,72.347,135.695,67.474z"/>
</g>
</svg>
