<?xml version="1.0" encoding="utf-8"?>
<!-- Generator: Adobe Illustrator 16.0.0, SVG Export Plug-In . SVG Version: 6.00 Build 0)  -->
<!DOCTYPE svg PUBLIC "-//W3C//DTD SVG 1.1//EN" "http://www.w3.org/Graphics/SVG/1.1/DTD/svg11.dtd">
<svg version="1.1" id="Layer_1" xmlns="http://www.w3.org/2000/svg" xmlns:xlink="http://www.w3.org/1999/xlink" x="0px" y="0px"
	 width="110px" height="110px" viewBox="0 0 110 110" enable-background="new 0 0 110 110" xml:space="preserve">
<g>
	<linearGradient id="SVGID_1_" gradientUnits="userSpaceOnUse" x1="12.8955" y1="31.3955" x2="21.1046" y2="39.6046">
		<stop  offset="0" style="stop-color:#4CC5FF"/>
		<stop  offset="1" style="stop-color:#27AAFF"/>
	</linearGradient>
	<path fill="url(#SVGID_1_)" d="M24,35.797C24,37.014,23.014,38,21.797,38h-9.594C10.986,38,10,37.014,10,35.797v-0.594
		C10,33.986,10.986,33,12.203,33h9.594C23.014,33,24,33.986,24,35.203V35.797z"/>
	<linearGradient id="SVGID_2_" gradientUnits="userSpaceOnUse" x1="17.2358" y1="9.9741" x2="95.1888" y2="87.9271">
		<stop  offset="0" style="stop-color:#4CC5FF"/>
		<stop  offset="1" style="stop-color:#27AAFF"/>
	</linearGradient>
	<path fill="url(#SVGID_2_)" d="M97.549,25.374C96.752,24.825,95.791,25,94.756,25H37.329l-2.747-10.515
		C34.319,12.006,32.229,10,29.657,10H19.246c-2.749,0-4.977,2.286-4.977,5c0,2.713,2.228,5,4.977,5h6.621l15.97,60.633
		c0.265,1.125,0.899,1.804,1.729,2.477c0.288,0.41,0.642,0.642,1.036,0.95c-0.177-0.013-0.353-0.09-0.533-0.09
		c-4.142,0-7.5,3.326-7.5,7.468c0,4.144,3.358,7.485,7.5,7.485c4.142,0,7.501-2.865,7.501-7.009c0-2.718-1.452-4.914-3.617-5.914
		h29.076c-2.165,1-3.616,3.188-3.616,5.906c0,4.144,3.358,7.251,7.5,7.251c4.143,0,7.501-3.482,7.501-7.626
		c0-3.226-2.042-6.03-4.899-7.089c1.564-0.854,2.641-2.036,2.641-3.911c0-2.714-2.229-4.531-4.977-4.531H50.651l-1.567-6h38.181
		c1.567,0,2.948-1.162,3.86-2.276c1.072-0.709,1.875-2.082,2.146-3.45l6.797-33.689C100.504,28.377,99.414,26.372,97.549,25.374z
		 M39.941,35h49.34l-5.025,25H47.622c-0.386,0-0.758,0.049-1.118,0.124L39.941,35z"/>
	<linearGradient id="SVGID_3_" gradientUnits="userSpaceOnUse" x1="16.896" y1="44.396" x2="25.1051" y2="52.6051">
		<stop  offset="0" style="stop-color:#4CC5FF"/>
		<stop  offset="1" style="stop-color:#27AAFF"/>
	</linearGradient>
	<path fill="url(#SVGID_3_)" d="M28,48.797C28,50.014,27.014,51,25.797,51h-9.594C14.986,51,14,50.014,14,48.797v-0.594
		C14,46.986,14.986,46,16.203,46h9.594C27.014,46,28,46.986,28,48.203V48.797z"/>
	<linearGradient id="SVGID_4_" gradientUnits="userSpaceOnUse" x1="19.896" y1="56.3965" x2="28.1051" y2="64.6056">
		<stop  offset="0" style="stop-color:#4CC5FF"/>
		<stop  offset="1" style="stop-color:#27AAFF"/>
	</linearGradient>
	<path fill="url(#SVGID_4_)" d="M31,60.797C31,62.014,30.014,63,28.797,63h-9.594C17.986,63,17,62.014,17,60.797v-0.594
		C17,58.986,17.986,58,19.203,58h9.594C30.014,58,31,58.986,31,60.203V60.797z"/>
</g>
</svg>
