<?xml version="1.0" encoding="utf-8"?>
<!-- Generator: Adobe Illustrator 16.0.0, SVG Export Plug-In . SVG Version: 6.00 Build 0)  -->
<!DOCTYPE svg PUBLIC "-//W3C//DTD SVG 1.1//EN" "http://www.w3.org/Graphics/SVG/1.1/DTD/svg11.dtd">
<svg version="1.1" id="Layer_1" xmlns="http://www.w3.org/2000/svg" xmlns:xlink="http://www.w3.org/1999/xlink" x="0px" y="0px"
	 width="180px" height="180px" viewBox="0 0 180 180" enable-background="new 0 0 180 180" xml:space="preserve">
<linearGradient id="SVGID_1_" gradientUnits="userSpaceOnUse" x1="33.5557" y1="33.1123" x2="147.2928" y2="146.8495">
	<stop  offset="0" style="stop-color:#F46178"/>
	<stop  offset="1" style="stop-color:#EE2E39"/>
</linearGradient>
<circle fill="url(#SVGID_1_)" cx="90.424" cy="89.98" r="80.424"/>
<g>
	<path fill="#FFFFFF" d="M126.914,109c0,0,0.086,0.138,0.086,0.173v4.43c0,2.611-2.193,4.397-4.805,4.397H64.989
		c-2.611,0-4.989-1.786-4.989-4.397v-4.43c0-0.035,0.27-0.173,0.271-0.173H50v4.276C50,121.11,57.045,128,64.878,128h56.736
		c7.833,0,13.386-6.89,13.386-14.724V109H126.914z"/>
	<path fill="#FFFFFF" d="M93.306,42.417c-3.917,0-7.092,3.176-7.092,7.093s3.176,7.092,7.092,7.092c3.917,0,7.092-3.175,7.092-7.092
		S97.223,42.417,93.306,42.417z M93.306,51.873c-1.306,0-2.364-1.058-2.364-2.363s1.058-2.364,2.364-2.364s2.364,1.059,2.364,2.364
		S94.611,51.873,93.306,51.873z"/>
	<path fill="#FFFFFF" d="M150,108.5c0,2.485-2.015,4.5-4.5,4.5h-105c-2.485,0-4.5-2.015-4.5-4.5l0,0c0-2.485,2.015-4.5,4.5-4.5h105
		C147.985,104,150,106.015,150,108.5L150,108.5z"/>
	<path fill="#FFFFFF" d="M55.493,104c-0.001,0-0.011-0.129-0.011-0.267c0-20.888,16.936-37.749,37.824-37.749
		c20.892,0,37.823,16.825,37.823,37.713c0,0.138-0.009,0.303-0.01,0.303h9.461c0.002,0,0.005-0.129,0.005-0.267
		c0-26.11-21.165-47.206-47.279-47.206c-26.11,0-47.279,21.06-47.279,47.17c0,0.137,0.004,0.303,0.005,0.303H55.493z"/>
	<path fill="#FFFFFF" d="M90.238,76.41C89.614,75.786,89,75.55,88,75.695v-0.003c0,0.002-0.074,0.005-0.083,0.006
		c-0.003,0.001-0.032,0.002-0.034,0.002c-10.294,1.728-17.284,6.84-20.694,16.442c-0.199,0.367-0.329,0.78-0.329,1.227
		c0,1.431,1.156,2.591,2.585,2.591c1.178,0,2.16-0.793,2.473-1.87c3.088-6.699,9.205-11.71,16.601-13.264l-0.001-0.012
		c0.607-0.039,1.229-0.28,1.693-0.744C91.223,79.059,91.249,77.42,90.238,76.41z"/>
	<path fill="#FFFFFF" d="M46,79.797C46,81.014,45.014,82,43.797,82H29.203C27.986,82,27,81.014,27,79.797v-0.594
		C27,77.986,27.986,77,29.203,77h14.594C45.014,77,46,77.986,46,79.203V79.797z"/>
	<path fill="#FFFFFF" d="M41,93.797C41,95.014,40.014,96,38.797,96h-4.594C32.986,96,32,95.014,32,93.797v-0.594
		C32,91.986,32.986,91,34.203,91h4.594C40.014,91,41,91.986,41,93.203V93.797z"/>
	<path fill="#FFFFFF" d="M55,63.797C55,65.014,54.013,66,52.796,66h-9.593C41.987,66,41,65.014,41,63.797v-0.594
		C41,61.986,41.987,61,43.204,61h9.593C54.013,61,55,61.986,55,63.203V63.797z"/>
</g>
</svg>
