<?xml version="1.0" encoding="utf-8"?>
<!-- Generator: Adobe Illustrator 16.0.0, SVG Export Plug-In . SVG Version: 6.00 Build 0)  -->
<!DOCTYPE svg PUBLIC "-//W3C//DTD SVG 1.1//EN" "http://www.w3.org/Graphics/SVG/1.1/DTD/svg11.dtd">
<svg version="1.1" id="Layer_1" xmlns="http://www.w3.org/2000/svg" xmlns:xlink="http://www.w3.org/1999/xlink" x="0px" y="0px"
	 width="180px" height="180px" viewBox="0 0 180 180" enable-background="new 0 0 180 180" xml:space="preserve">
<linearGradient id="SVGID_1_" gradientUnits="userSpaceOnUse" x1="33.5557" y1="33.1123" x2="147.2928" y2="146.8495">
	<stop  offset="0" style="stop-color:#F9539A"/>
	<stop  offset="1" style="stop-color:#EC2362"/>
</linearGradient>
<circle fill="url(#SVGID_1_)" cx="90.424" cy="89.98" r="80.424"/>
<g>
	<path fill="#FFFFFF" d="M131.013,72.613c-1.665,0-3.114,0.387-3.894,2.387h-2.442c-0.798-17.931-15.583-32.224-33.71-32.224
		S58.055,57.069,57.256,75h-2.664c-0.695-2-2.279-2.838-4.123-2.838c-2.486,0-4.5,1.946-4.5,4.432c0,2.396,1.873,4.314,4.234,4.452
		c2.225,18.483,16.555,33.077,34.885,35.612c0.604,0.533,0.912,1.102,0.912,1.716v9.45c0,0.308,0.131,0.176-0.053,1.176H75.553
		c-1.305,0-2.553,0.781-2.553,2.086v0.225c0,1.305,1.248,2.689,2.553,2.689h30.823c1.305,0,2.624-1.385,2.624-2.689v-0.225
		c0-1.305-1.319-2.086-2.624-2.086H95.53c-0.184-1-0.53-0.868-0.53-1.176v-9.45c0-0.597,0.525-1.167,1.104-1.688
		c18.362-2.371,32.971-16.842,35.383-35.244c2.233-0.265,3.996-2.093,3.996-4.397C135.482,74.559,133.498,72.613,131.013,72.613z
		 M90.517,50.16c14.562,0,26.365,11.804,26.365,26.365s-11.804,26.365-26.365,26.365S64.151,91.087,64.151,76.525
		S75.955,50.16,90.517,50.16z M91.314,113.447C71.713,113.447,55.669,99,54.258,79h3.061c1.268,17.482,15.843,31.274,33.648,31.274
		S123.347,96.482,124.615,79h2.504c0.293,1,0.682,1.062,1.141,1.417C126.242,99.187,110.475,113.447,91.314,113.447z"/>
	<path fill="#FFFFFF" d="M90.432,56.474c0.051,0.007,0.102,0.015,0.154,0.015c0.661,0,1.328-0.535,1.328-1.196
		c0-0.608-0.914-1.106-0.914-1.182v-0.016c0,0-0.212,0.003-0.253,0.003c-0.01,0-0.085-0.003-0.096-0.003
		c-0.018,0-0.067,0.005-0.085,0.005c-12.217,0.114-22.119,9.967-22.293,22.17c-0.008,0.057-0.025,0.113-0.025,0.172
		c0,0.661,0.532,1.197,1.193,1.197c0.66,0,1.195-0.536,1.195-1.197c0-0.031-0.009-0.061-0.011-0.092
		C70.816,65.479,79.57,56.702,90.432,56.474z"/>
</g>
</svg>
