<?xml version="1.0" encoding="utf-8"?>
<!-- Generator: Adobe Illustrator 16.0.0, SVG Export Plug-In . SVG Version: 6.00 Build 0)  -->
<!DOCTYPE svg PUBLIC "-//W3C//DTD SVG 1.1//EN" "http://www.w3.org/Graphics/SVG/1.1/DTD/svg11.dtd">
<svg version="1.1" id="Layer_1" xmlns="http://www.w3.org/2000/svg" xmlns:xlink="http://www.w3.org/1999/xlink" x="0px" y="0px"
	 width="110px" height="110px" viewBox="0 0 110 110" enable-background="new 0 0 110 110" xml:space="preserve">
<linearGradient id="SVGID_1_" gradientUnits="userSpaceOnUse" x1="24.5557" y1="30.7412" x2="85.1763" y2="91.3618">
	<stop  offset="0" style="stop-color:#6245DB"/>
	<stop  offset="1" style="stop-color:#2D1EC2"/>
</linearGradient>
<path fill="url(#SVGID_1_)" d="M97.257,44h-7.083l-9.458-16.757l-0.037-0.015c-0.806-1.8-2.606-3.141-4.706-3.141
	c-0.07,0-0.141-0.088-0.213-0.088h-0.01l-20.472,0.119l-20.472,0.022l-0.01,0.03c-0.071-0.003-0.143,0-0.213,0
	c-2.1,0-3.9,1.261-4.706,3.06l-0.038,0.01L20.383,44H12.01c-1.11,0-2.01,1.107-2.01,2.478c0,0,0,2.298,0,2.642
	c0,1.371,1.624,2.365,4.948,3.749c0.108,0.045,0.241,0.09,0.39,0.134c-0.317,0.657-1.225,2.762-1.186,5.249
	c0.064,3.986,0.017,13.179,0.017,13.179C14.166,73.319,15,74.897,17,75.551v6.498C17,84.156,18.681,86,20.788,86h7.31
	C30.205,86,32,84.156,32,82.049v-6.205c10-0.023,22.425-0.055,23.455-0.057c1,0.002,12.545,0.031,22.545,0.056v6.206
	C78,84.156,79.439,86,81.547,86h7.311C90.965,86,93,84.156,93,82.049v-6.248c2-0.357,3.568-2.148,3.566-4.371
	c0,0-0.145-9.192-0.081-13.179c0.049-3.008-1.335-5.465-1.335-5.465l0.021-0.244C98.039,51.324,100,50.379,100,49.12
	c0-0.344,0-2.642,0-2.642C100,45.107,98.366,44,97.257,44z M39,66.537C39,67.897,37.896,69,36.537,69H26.463
	C25.104,69,24,67.897,24,66.537v-0.074C24,65.103,25.104,64,26.463,64h10.074C37.896,64,39,65.103,39,66.463V66.537z M35.666,61
	h-9.009c-2.073,0-2.713-1.215-2.713-3.646c0-3.616,1.591-4.148,3.663-4.154c1.71-0.004,4.188,0.857,5.914,1.611
	c1.252,0.546,5.364,2.288,5.364,3.782C38.886,60.254,37.738,61,35.666,61z M33.812,46c-5.029,0-6.098-2.862-4.673-5.854l2.556-6.354
	C33.535,30.249,34.904,29,37.777,29c2.257,0,31.044,0,33.405,0c2.874,0,4.243,1.038,6.083,4.582l3.582,6.626
	C82.272,43.2,81.203,46,76.176,46H33.812z M87,66.537C87,67.897,85.897,69,84.537,69H74.463C73.103,69,72,67.897,72,66.537v-0.074
	C72,65.103,73.103,64,74.463,64h10.074C85.897,64,87,65.103,87,66.463V66.537z M83.984,61h-9.01c-2.072,0-3.219-0.749-3.219-2.411
	c0-1.493,4.111-3.229,5.363-3.775c1.727-0.753,4.205-1.622,5.914-1.618c2.073,0.004,3.663,0.544,3.663,4.16
	C86.696,59.787,86.056,61,83.984,61z"/>
</svg>
