<?xml version="1.0" encoding="utf-8"?>
<!-- Generator: Adobe Illustrator 16.0.0, SVG Export Plug-In . SVG Version: 6.00 Build 0)  -->
<!DOCTYPE svg PUBLIC "-//W3C//DTD SVG 1.1//EN" "http://www.w3.org/Graphics/SVG/1.1/DTD/svg11.dtd">
<svg version="1.1" id="Layer_1" xmlns="http://www.w3.org/2000/svg" xmlns:xlink="http://www.w3.org/1999/xlink" x="0px" y="0px"
	 width="110px" height="110px" viewBox="0 0 110 110" enable-background="new 0 0 110 110" xml:space="preserve">
<g>
	<linearGradient id="SVGID_1_" gradientUnits="userSpaceOnUse" x1="25.585" y1="25.1816" x2="86.363" y2="85.9597">
		<stop  offset="0" style="stop-color:#F9539A"/>
		<stop  offset="1" style="stop-color:#EC2362"/>
	</linearGradient>
	<path fill="url(#SVGID_1_)" d="M96.013,38.613c-1.665,0-3.114,0.387-3.894,2.387h-2.442C88.879,23.069,74.094,8.776,55.967,8.776
		S23.055,23.069,22.256,41h-2.664c-0.695-2-2.279-2.838-4.123-2.838c-2.486,0-4.5,1.946-4.5,4.432c0,2.396,1.873,4.314,4.234,4.452
		c2.225,18.483,16.555,33.077,34.885,35.612C50.692,83.191,51,83.76,51,84.374v9.45C51,94.132,51.131,94,50.947,95H40.553
		C39.248,95,38,95.781,38,97.086v0.225c0,1.305,1.248,2.689,2.553,2.689h30.823C72.681,100,74,98.615,74,97.311v-0.225
		C74,95.781,72.681,95,71.376,95H60.53C60.347,94,60,94.132,60,93.824v-9.45c0-0.597,0.525-1.167,1.104-1.688
		c18.362-2.371,32.971-16.842,35.383-35.244c2.233-0.265,3.996-2.093,3.996-4.397C100.482,40.559,98.498,38.613,96.013,38.613z
		 M55.517,16.16c14.562,0,26.365,11.804,26.365,26.365S70.078,68.891,55.517,68.891S29.151,57.087,29.151,42.525
		S40.955,16.16,55.517,16.16z M56.314,79.447C36.713,79.447,20.669,65,19.258,45h3.061c1.268,17.482,15.843,31.274,33.648,31.274
		S88.347,62.482,89.615,45h2.504c0.293,1,0.682,1.062,1.141,1.417C91.242,65.187,75.475,79.447,56.314,79.447z"/>
	<linearGradient id="SVGID_2_" gradientUnits="userSpaceOnUse" x1="39.8452" y1="26.7104" x2="45.8881" y2="32.7533">
		<stop  offset="0" style="stop-color:#F9539A"/>
		<stop  offset="1" style="stop-color:#EC2362"/>
	</linearGradient>
	<path fill="url(#SVGID_2_)" d="M55.432,22.474c0.051,0.007,0.102,0.015,0.154,0.015c0.661,0,1.328-0.535,1.328-1.196
		c0-0.608-0.914-1.106-0.914-1.182v-0.016c0,0-0.212,0.003-0.253,0.003c-0.01,0-0.085-0.003-0.096-0.003
		c-0.018,0-0.067,0.005-0.085,0.005c-12.217,0.114-22.119,9.967-22.293,22.17c-0.008,0.057-0.025,0.113-0.025,0.172
		c0,0.661,0.532,1.197,1.193,1.197c0.66,0,1.195-0.536,1.195-1.197c0-0.031-0.009-0.061-0.011-0.092
		C35.816,31.479,44.57,22.702,55.432,22.474z"/>
</g>
</svg>
