<?xml version="1.0" encoding="utf-8"?>
<!-- Generator: Adobe Illustrator 16.0.0, SVG Export Plug-In . SVG Version: 6.00 Build 0)  -->
<!DOCTYPE svg PUBLIC "-//W3C//DTD SVG 1.1//EN" "http://www.w3.org/Graphics/SVG/1.1/DTD/svg11.dtd">
<svg version="1.1" id="Layer_1" xmlns="http://www.w3.org/2000/svg" xmlns:xlink="http://www.w3.org/1999/xlink" x="0px" y="0px"
	 width="110px" height="110px" viewBox="0 0 110 110" enable-background="new 0 0 110 110" xml:space="preserve">
<g>
	<linearGradient id="SVGID_1_" gradientUnits="userSpaceOnUse" x1="26.8784" y1="31.8696" x2="91.0401" y2="96.0313">
		<stop  offset="0" style="stop-color:#41D1B0"/>
		<stop  offset="1" style="stop-color:#1FBA87"/>
	</linearGradient>
	<path fill="url(#SVGID_1_)" d="M97.934,46.688L85,34.866V19.969C85,17.225,82.775,15,80.031,15h-0.062
		C77.225,15,75,17.225,75,19.969v5.758L58.812,10.931C57.736,9.947,56.348,9.538,55,9.657c-1.348-0.119-2.736,0.29-3.812,1.274
		L12.066,46.688c-2.039,1.863-2.181,5.025-0.318,7.064c1.863,2.038,5.026,2.18,7.064,0.317L20,52.983V95c0,2.762,2.238,5,5,5h21.92
		h16.16H85c2.762,0,5-2.238,5-5V52.983l1.188,1.085c2.038,1.863,5.201,1.721,7.064-0.317C100.114,51.713,99.973,48.55,97.934,46.688
		z M63,90H47V73.203C47,71.434,48.434,70,50.203,70h9.594C61.566,70,63,71.434,63,73.203V90z M80,90H70V69.92
		c0-3.822-3.098-6.92-6.92-6.92H46.92C43.098,63,40,66.098,40,69.92V90H30V43.844l25-22.85l25,22.85V90z"/>
	<linearGradient id="SVGID_2_" gradientUnits="userSpaceOnUse" x1="46.6479" y1="41.1479" x2="63.3527" y2="57.8527">
		<stop  offset="0" style="stop-color:#41D1B0"/>
		<stop  offset="1" style="stop-color:#1FBA87"/>
	</linearGradient>
	<path fill="url(#SVGID_2_)" d="M40,49.066v0.868C40,51.627,41.372,53,43.064,53h23.871C68.628,53,70,51.627,70,49.934v-0.868
		C70,47.373,68.628,46,66.936,46H43.064C41.372,46,40,47.373,40,49.066z"/>
</g>
</svg>
