<?xml version="1.0" encoding="utf-8"?>
<!-- Generator: Adobe Illustrator 16.0.0, SVG Export Plug-In . SVG Version: 6.00 Build 0)  -->
<!DOCTYPE svg PUBLIC "-//W3C//DTD SVG 1.1//EN" "http://www.w3.org/Graphics/SVG/1.1/DTD/svg11.dtd">
<svg version="1.1" id="Layer_1" xmlns="http://www.w3.org/2000/svg" xmlns:xlink="http://www.w3.org/1999/xlink" x="0px" y="0px"
	 width="180px" height="180px" viewBox="0 0 180 180" enable-background="new 0 0 180 180" xml:space="preserve">
<linearGradient id="SVGID_1_" gradientUnits="userSpaceOnUse" x1="33.5557" y1="33.1123" x2="147.2928" y2="146.8495">
	<stop  offset="0" style="stop-color:#FCA34E"/>
	<stop  offset="1" style="stop-color:#FA782A"/>
</linearGradient>
<circle fill="url(#SVGID_1_)" cx="90.424" cy="89.98" r="80.424"/>
<g>
	<path fill="#FFFFFF" d="M124.594,50H57.972C51.839,50,46,55.456,46,61.587v57.739c0,5.372,4,9.853,10,10.88V140h5.969l4.642-10
		h49.345l4.641,10H127v-9.794c6-1.027,9-5.508,9-10.88V61.587C136,55.456,130.725,50,124.594,50z M126,117.025
		c0,2.454-2.387,4.975-4.84,4.975H59.766c-2.452,0-3.766-2.521-3.766-4.975V99.074C56,96.622,57.314,95,59.766,95h61.394
		c2.453,0,4.84,1.622,4.84,4.074V117.025z M126,81.56c0,2.452-1.988,4.44-4.441,4.44H60.441C57.988,86,56,84.012,56,81.56V64.44
		c0-2.452,1.988-4.44,4.441-4.44h61.118c2.453,0,4.441,1.988,4.441,4.44V81.56z"/>
	<path fill="#FFFFFF" d="M99,72.007C99,73.213,97.792,73,96.586,73h-9.689C85.69,73,84,73.213,84,72.007v-0.746
		C84,70.057,85.69,69,86.896,69h9.689C97.792,69,99,70.057,99,71.261V72.007z"/>
	<path fill="#FFFFFF" d="M98,106.816c0,1.206-0.978,2.184-2.184,2.184h-9.633c-1.206,0-2.184-0.978-2.184-2.184v-0.633
		c0-1.206,0.978-2.184,2.184-2.184h9.633c1.206,0,2.184,0.978,2.184,2.184V106.816z"/>
</g>
</svg>
