<svg height="512pt" viewBox="0 0 512.00013 512" width="512pt" xmlns="http://www.w3.org/2000/svg"><path d="m145.445312 281.695312 21.214844-21.210937 84.851563 84.851563-21.214844 21.214843zm0 0"/><path d="m124.238281 302.910156-124.238281 124.238282v63.636718l156.054688-156.054687zm0 0"/><path d="m21.214844 512h63.636718l124.238282-124.238281-31.820313-31.820313zm0 0"/><path d="m481.296875 87.214844-56.570313-56.570313c-19.761718-19.761719-46.128906-30.644531-74.246093-30.644531-28.117188 0-54.484375 10.882812-74.246094 30.644531l-106.066406 106.066407c-23.394531 23.394531-23.394531 61.460937 0 84.855468l120.210937 120.207032c11.296875 11.296874 26.363282 17.519531 42.425782 17.519531 16.058593 0 31.128906-6.222657 42.425781-17.519531l106.066406-106.066407c40.9375-40.941406 40.9375-107.554687 0-148.492187zm-53.035156 95.457031c-11.496094 11.5-30.925781 11.5-42.425781 0l-56.566407-56.566406c-11.5-11.5-11.5-30.929688 0-42.429688 11.496094-11.496093 30.925781-11.496093 42.425781 0l56.566407 56.570313c11.5 11.5 11.5 30.929687 0 42.425781zm0 0"/></svg>