<svg height="512pt" viewBox="-52 0 511 512" width="512pt" xmlns="http://www.w3.org/2000/svg"><path d="m384.964844 206.109375c-14.199219-14.308594-33.144532-22.214844-53.351563-22.253906-.050781 0-.101562 0-.152343 0-20.078126 0-38.925782 7.789062-53.074219 21.941406l-7.359375 7.359375v-77.890625c0-74.585937-60.679688-135.265625-135.261719-135.265625-74.585937 0-135.265625 60.679688-135.265625 135.265625v290.378906h270.585938l113.574218-113.574219c29.183594-29.183593 29.320313-76.71875.304688-105.960937zm0 0"/><path d="m.5 455.703125v41.265625c0 8.300781 6.730469 15.03125 15.03125 15.03125h240.46875c8.300781 0 15.027344-6.730469 15.027344-15.03125v-41.265625zm0 0"/></svg>