<?xml version="1.0" encoding="iso-8859-1"?>
<!-- Generator: Adobe Illustrator 19.0.0, SVG Export Plug-In . SVG Version: 6.00 Build 0)  -->
<svg xmlns="http://www.w3.org/2000/svg" xmlns:xlink="http://www.w3.org/1999/xlink" version="1.1" id="Layer_1" x="0px" y="0px" viewBox="0 0 401.38 401.38" style="enable-background:new 0 0 401.38 401.38;" xml:space="preserve" width="512" height="512">
<g>
	<polygon style="fill:#E6E6E6;" points="283.345,107.04 257.695,314.96 142.635,355.03 114.285,366.17 99.305,328.06 6.615,92.23    241.275,0  "/>
	<path style="fill:#CCCCCC;" d="M112.765,293.97l-13.46-34.24v68.33l14.98,38.11l28.35-11.14v-72.8L112.765,293.97z"/>
	<polygon style="fill:#9AD14B;" points="256.495,107.04 142.635,282.23 112.765,293.97 99.305,259.73 38.815,105.83 226.955,31.89     "/>
	<path style="fill:#90BC42;" d="M99.305,129.04v130.69l13.46,34.24l112.957-44.396L190.695,129.04H99.305z"/>
	<path style="fill:#E6E6E6;" d="M394.765,107.04v294.34h-252.13v-46.35v-72.8V107.04h113.86h26.85H394.765z"/>
	<rect x="167.625" y="131.48" style="fill:#96D0EA;" width="202.15" height="202.15"/>
	<path style="fill:#F7B239;" d="M304.835,164.39c15.12,0,27.37,12.26,27.37,27.38c0,15.11-12.25,27.37-27.37,27.37   s-27.37-12.26-27.37-27.37C277.465,176.65,289.715,164.39,304.835,164.39z"/>
	<path style="fill:#2BA5F7;" d="M369.775,270.55v63.08h-202.15v-73.08c14.44,0,14.44,10,28.88,10c14.43,0,14.43-10,28.87-10   s14.44,10,28.88,10c14.44,0,14.44-10,28.88-10s14.44,10,28.88,10s14.44-10,28.88-10S355.335,270.55,369.775,270.55z"/>
</g>















</svg>
