<?xml version="1.0" encoding="iso-8859-1"?>
<!-- Generator: Adobe Illustrator 19.0.0, SVG Export Plug-In . SVG Version: 6.00 Build 0)  -->
<svg version="1.1" id="Capa_1" xmlns="http://www.w3.org/2000/svg" xmlns:xlink="http://www.w3.org/1999/xlink" x="0px" y="0px"
	 viewBox="0 0 336 336" style="enable-background:new 0 0 336 336;" xml:space="preserve">
<g>
	<g>
		<path d="M147.52,0H57.68C42.954,0.022,31.022,11.954,31,26.68v30.08c0.022,14.726,11.954,26.658,26.68,26.68H61V96h83V83.44h3.32
			c14.726-0.022,26.658-11.954,26.68-26.68V26.68C173.979,12.032,162.168,0.132,147.52,0z"/>
	</g>
</g>
<g>
	<g>
		<path d="M167.16,107.44H38c-20.978,0.022-37.978,17.022-38,38V298c0.044,20.969,17.031,37.956,38,38h129.16
			c20.969-0.044,37.956-17.031,38-38V145.44C205.138,124.462,188.138,107.462,167.16,107.44z M197.16,258.24H8V185.2h189.2
			L197.16,258.24z"/>
	</g>
</g>
<g>
	<g>
		<path d="M305,274h-38c-17.121,0-31,13.879-31,31c0,17.121,13.879,31,31,31h38c17.121,0,31-13.879,31-31
			C336,287.879,322.121,274,305,274z M282,328h-15c-12.693-0.022-22.978-10.307-23-23c0.022-12.693,10.307-22.978,23-23h15V328z"/>
	</g>
</g>
<g>
</g>
<g>
</g>
<g>
</g>
<g>
</g>
<g>
</g>
<g>
</g>
<g>
</g>
<g>
</g>
<g>
</g>
<g>
</g>
<g>
</g>
<g>
</g>
<g>
</g>
<g>
</g>
<g>
</g>
</svg>
