<?xml version="1.0" encoding="iso-8859-1"?>
<!-- Generator: Adobe Illustrator 21.0.0, SVG Export Plug-In . SVG Version: 6.00 Build 0)  -->
<svg xmlns="http://www.w3.org/2000/svg" xmlns:xlink="http://www.w3.org/1999/xlink" version="1.1" id="Capa_1" x="0px" y="0px" viewBox="0 0 512 512" style="enable-background:new 0 0 512 512;" xml:space="preserve" width="512" height="512">
<g>
	<circle style="fill:#FF4856;" cx="256" cy="256" r="256"/>
	<path style="fill:#D1425A;" d="M511.64,269.601L394,151.961h-83.772c-0.116-0.114-26.353-26.336-26.353-26.336l-158.25,261.75   l124.551,124.551c1.937,0.043,3.877,0.074,5.824,0.074C392.822,512,504.569,404.662,511.64,269.601z"/>
	<g>
		<path style="fill:#FFE2BA;" d="M266.242,394H142.258C128.882,394,118,383.118,118,369.742V142.258    C118,128.882,128.882,118,142.258,118h123.984c13.376,0,24.258,10.882,24.258,24.258v227.484    C290.5,383.118,279.618,394,266.242,394z"/>
		<path style="fill:#FFC474;" d="M266.242,118H204.25v276h61.992c13.376,0,24.258-10.882,24.258-24.258V142.258    C290.5,128.882,279.618,118,266.242,118z"/>
		<path style="fill:#CCF0FF;" d="M394,329.852H216.109V151.961H394V329.852z"/>
		<circle style="fill:#FFB742;" cx="173.523" cy="160.047" r="8.086"/>
		<rect x="305.055" y="151.961" style="fill:#80C9FF;" width="88.945" height="177.891"/>
		<polygon style="fill:#266CB2;" points="248.453,216.648 264.625,216.648 264.625,200.477 280.797,200.477 280.797,184.305     248.453,184.305   "/>
		<polygon style="fill:#266CB2;" points="264.625,265.164 248.453,265.164 248.453,297.508 280.797,297.508 280.797,281.336     264.625,281.336   "/>
		<rect x="296.969" y="184.305" style="fill:#266CB2;" width="21.563" height="16.172"/>
		<polygon style="fill:#266CB2;" points="315.836,232.82 315.836,216.648 280.797,216.648 280.797,232.82 248.453,232.82     248.453,248.992 280.797,248.992 280.797,265.164 299.664,265.164 299.664,297.508 315.836,297.508 315.836,248.992     296.969,248.992 296.969,232.82   "/>
		<rect x="165.438" y="345.484" style="fill:#FFB742;" width="77.625" height="16.172"/>
		<rect x="204.25" y="345.484" style="fill:#FE8100;" width="38.813" height="16.172"/>
		<g>
			<rect x="334.703" y="184.305" style="fill:#114378;" width="26.953" height="16.172"/>
			<polygon style="fill:#114378;" points="345.484,281.336 332.008,281.336 332.008,297.508 361.656,297.508 361.656,265.164      345.484,265.164    "/>
			<polygon style="fill:#114378;" points="345.484,232.82 332.008,232.82 332.008,248.992 361.656,248.992 361.656,216.648      345.484,216.648    "/>
			<rect x="305.055" y="216.648" style="fill:#114378;" width="10.781" height="16.172"/>
			<rect x="305.055" y="248.992" style="fill:#114378;" width="10.781" height="48.516"/>
			<rect x="305.055" y="184.305" style="fill:#114378;" width="13.477" height="16.172"/>
		</g>
	</g>
</g>















</svg>
