<?xml version="1.0" encoding="iso-8859-1"?>
<!-- Generator: Adobe Illustrator 19.0.0, SVG Export Plug-In . SVG Version: 6.00 Build 0)  -->
<svg version="1.1" id="Capa_1" xmlns="http://www.w3.org/2000/svg" xmlns:xlink="http://www.w3.org/1999/xlink" x="0px" y="0px"
	 viewBox="0 0 512 512" style="enable-background:new 0 0 512 512;" xml:space="preserve">
<g>
	<g>
		<g>
			<path d="M485.25,295.844L379.646,278.24l-30.604-45.906c-7.938-11.896-21.208-19-35.5-19h-157.75c-14.292,0-27.563,7.104-35.5,19
				l-30.875,46.323L24.25,294.948C9.979,298.51,0,311.281,0,325.99v53.594c0,12.573,4.896,24.396,13.792,33.292
				c8.771,8.76,20.896,13.792,33.292,13.792h27.583c0.375,0,0.691-0.176,1.056-0.214c4.875,24.415,26.441,42.88,52.277,42.88
				s47.402-18.465,52.277-42.88c0.365,0.038,0.681,0.214,1.056,0.214H320c0.375,0,0.691-0.176,1.056-0.214
				c4.875,24.415,26.441,42.88,52.277,42.88s47.402-18.465,52.277-42.88c0.365,0.038,0.681,0.214,1.056,0.214h46.75
				c8.125,0,15.438-4.51,19.083-11.792l17.25-34.521c0.375-0.75,0.667-1.542,0.854-2.354l1.125-4.771
				c0.188-0.792,0.271-1.604,0.271-2.417v-43.406C512,311.688,500.75,298.417,485.25,295.844z M128,448c-17.646,0-32-14.354-32-32
				c0-17.646,14.354-32,32-32s32,14.354,32,32C160,433.646,145.646,448,128,448z M334.333,320H138.667
				c-3.75,0-7.229-1.969-9.146-5.188c-1.938-3.219-2.021-7.208-0.25-10.51l22.833-42.667c1.854-3.469,5.458-5.635,9.396-5.635
				h146.333c3.688,0,7.125,1.906,9.063,5.042l26.5,42.667c2.042,3.292,2.146,7.427,0.25,10.813
				C341.771,317.906,338.208,320,334.333,320z M373.333,448c-17.646,0-32-14.354-32-32c0-17.646,14.354-32,32-32
				c17.646,0,32,14.354,32,32C405.333,433.646,390.979,448,373.333,448z"/>
			<path d="M111.417,126.208l32,21.333c1.75,1.167,3.813,1.792,5.917,1.792h92.794C254.138,174.49,279.599,192,309.333,192
				C350.57,192,384,158.57,384,117.333c0-41.237-33.43-74.667-74.667-74.667c-29.734,0-55.195,17.51-67.206,42.667h-92.794
				c-2.104,0-4.167,0.625-5.917,1.792l-32,21.333c-2.958,1.979-4.75,5.313-4.75,8.875S108.458,124.229,111.417,126.208z M330.667,96
				C342.438,96,352,105.573,352,117.333c0,11.76-9.563,21.333-21.333,21.333c-11.771,0-21.333-9.573-21.333-21.333
				C309.333,105.573,318.896,96,330.667,96z"/>
		</g>
	</g>
</g>
<g>
</g>
<g>
</g>
<g>
</g>
<g>
</g>
<g>
</g>
<g>
</g>
<g>
</g>
<g>
</g>
<g>
</g>
<g>
</g>
<g>
</g>
<g>
</g>
<g>
</g>
<g>
</g>
<g>
</g>
</svg>
