<?xml version="1.0" encoding="iso-8859-1"?>
<!-- Generator: Adobe Illustrator 19.0.0, SVG Export Plug-In . SVG Version: 6.00 Build 0)  -->
<svg version="1.1" id="Capa_1" xmlns="http://www.w3.org/2000/svg" xmlns:xlink="http://www.w3.org/1999/xlink" x="0px" y="0px"
	 viewBox="0 0 512.001 512.001" style="enable-background:new 0 0 512.001 512.001;" xml:space="preserve">
<g>
	<g>
		<path d="M146.586,297.116c-14.587-8.277-31.136-12.684-48.361-12.684c-26.237,0-50.903,10.217-69.455,28.77
			C10.217,331.752,0,356.419,0,382.656c0,26.237,10.217,50.904,28.769,69.455c18.553,18.553,43.219,28.77,69.456,28.77
			s50.904-10.217,69.456-28.77l66.949-66.951L146.586,297.116z M120.88,405.312c-12.512,12.512-32.8,12.512-45.322,0
			c-12.512-12.512-12.512-32.8,0-45.322c12.522-12.512,32.81-12.512,45.322,0C133.392,372.512,133.392,392.801,120.88,405.312z"/>
	</g>
</g>
<g>
	<g>
		<path d="M444.828,36.038c-5.901-5.899-15.467-5.898-21.368,0.002L277.367,182.139l80.139,80.139l87.322-87.325
			c18.558-18.553,28.778-43.22,28.778-69.457C473.606,79.258,463.385,54.591,444.828,36.038z"/>
	</g>
</g>
<g>
	<g>
		<path d="M483.231,313.2c-18.553-18.553-43.219-28.77-69.456-28.77c-21.129,0-41.24,6.628-57.96,18.895L88.037,35.547
			c-2.834-2.834-6.677-4.426-10.684-4.426c-4.007,0-7.85,1.593-10.684,4.426c-18.554,18.552-28.771,43.219-28.771,69.455
			c0,26.237,10.217,50.904,28.77,69.456l277.654,277.654c18.552,18.553,43.219,28.77,69.456,28.77
			c26.237,0,50.903-10.217,69.455-28.77c18.553-18.552,28.77-43.218,28.77-69.455C512.001,356.419,501.783,331.752,483.231,313.2z
			 M256,296.965c-8.471,0-14.744-6.924-15.111-15.111c-0.366-8.161,7.207-15.111,15.111-15.111c8.471,0,14.744,6.924,15.111,15.111
			C271.476,290.015,263.904,296.965,256,296.965z M436.438,405.312c-12.515,12.515-32.804,12.515-45.318,0
			c-12.515-12.515-12.515-32.804,0-45.318c12.515-12.515,32.804-12.515,45.318,0C448.951,372.509,448.951,392.798,436.438,405.312z"
			/>
	</g>
</g>
<g>
</g>
<g>
</g>
<g>
</g>
<g>
</g>
<g>
</g>
<g>
</g>
<g>
</g>
<g>
</g>
<g>
</g>
<g>
</g>
<g>
</g>
<g>
</g>
<g>
</g>
<g>
</g>
<g>
</g>
</svg>
