<?xml version="1.0" encoding="iso-8859-1"?>
<!-- Generator: Adobe Illustrator 18.0.0, SVG Export Plug-In . SVG Version: 6.00 Build 0)  -->
<!DOCTYPE svg PUBLIC "-//W3C//DTD SVG 1.1//EN" "http://www.w3.org/Graphics/SVG/1.1/DTD/svg11.dtd">
<svg version="1.1" id="Capa_1" xmlns="http://www.w3.org/2000/svg" xmlns:xlink="http://www.w3.org/1999/xlink" x="0px" y="0px"
	 viewBox="0 0 297 297" style="enable-background:new 0 0 297 297;" xml:space="preserve">
<g>
	<path d="M150.465,203.802h-3.93c-9.288,0-16.843,7.555-16.843,16.843v59.513c0,9.287,7.555,16.843,16.843,16.843h3.93
		c9.288,0,16.843-7.556,16.843-16.843v-59.513C167.308,211.356,159.753,203.802,150.465,203.802z"/>
	<path d="M213.627,82.531c0-14.859-12.09-26.949-26.949-26.949h-1.285c-8.403,11.239-21.812,18.527-36.893,18.527
		c-15.08,0-28.489-7.288-36.893-18.527h-1.285c-14.859,0-26.949,12.09-26.949,26.949v131.938c0,14.859,12.09,26.949,26.949,26.949
		h1.403v-20.773c0-19.194,15.615-34.809,34.81-34.809h3.93c19.194,0,34.81,15.614,34.81,34.809v20.773h1.403
		c14.859,0,26.949-12.09,26.949-26.949V82.531z"/>
	<path d="M241.137,1.123h-55.345c5.494,7.581,8.746,16.89,8.746,26.949c0,2.879-0.289,5.688-0.8,8.421h47.398
		c4.652,0,8.422-3.77,8.422-8.421V9.544C249.559,4.893,245.789,1.123,241.137,1.123z"/>
	<path d="M148.5,56.144c15.479,0,28.072-12.593,28.072-28.071C176.572,12.593,163.979,0,148.5,0
		c-15.48,0-28.071,12.593-28.071,28.072C120.429,43.551,133.02,56.144,148.5,56.144z"/>
	<path d="M102.462,28.072c0-10.06,3.252-19.368,8.746-26.949H55.863c-4.652,0-8.422,3.77-8.422,8.421v18.528
		c0,4.651,3.769,8.421,8.422,8.421h47.398C102.751,33.761,102.462,30.951,102.462,28.072z"/>
</g>
<g>
</g>
<g>
</g>
<g>
</g>
<g>
</g>
<g>
</g>
<g>
</g>
<g>
</g>
<g>
</g>
<g>
</g>
<g>
</g>
<g>
</g>
<g>
</g>
<g>
</g>
<g>
</g>
<g>
</g>
</svg>
