<?xml version="1.0" encoding="UTF-8"?>
<!DOCTYPE svg PUBLIC "-//W3C//DTD SVG 1.1//EN" "http://www.w3.org/Graphics/SVG/1.1/DTD/svg11.dtd">
<svg version="1.2" width="19mm" height="17mm" viewBox="0 0 1900 1700" preserveAspectRatio="xMidYMid" fill-rule="evenodd" stroke-width="28.222" stroke-linejoin="round" xmlns="http://www.w3.org/2000/svg" xmlns:ooo="http://xml.openoffice.org/svg/export" xmlns:xlink="http://www.w3.org/1999/xlink" xmlns:presentation="http://sun.com/xmlns/staroffice/presentation" xmlns:smil="http://www.w3.org/2001/SMIL20/" xmlns:anim="urn:oasis:names:tc:opendocument:xmlns:animation:1.0" xml:space="preserve">
 <defs class="ClipPathGroup">
  <clipPath id="presentation_clip_path" clipPathUnits="userSpaceOnUse">
   <rect x="0" y="0" width="1900" height="1700"/>
  </clipPath>
  <clipPath id="presentation_clip_path_shrink" clipPathUnits="userSpaceOnUse">
   <rect x="1" y="1" width="1897" height="1697"/>
  </clipPath>
 </defs>
 <defs class="TextShapeIndex">
  <g ooo:slide="id1" ooo:id-list="id3 id4 id5 id6"/>
 </defs>
 <defs class="EmbeddedBulletChars">
  <g id="bullet-char-template-57356" transform="scale(0.00048828125,-0.00048828125)">
   <path d="M 580,1141 L 1163,571 580,0 -4,571 580,1141 Z"/>
  </g>
  <g id="bullet-char-template-57354" transform="scale(0.00048828125,-0.00048828125)">
   <path d="M 8,1128 L 1137,1128 1137,0 8,0 8,1128 Z"/>
  </g>
  <g id="bullet-char-template-10146" transform="scale(0.00048828125,-0.00048828125)">
   <path d="M 174,0 L 602,739 174,1481 1456,739 174,0 Z M 1358,739 L 309,1346 659,739 1358,739 Z"/>
  </g>
  <g id="bullet-char-template-10132" transform="scale(0.00048828125,-0.00048828125)">
   <path d="M 2015,739 L 1276,0 717,0 1260,543 174,543 174,936 1260,936 717,1481 1274,1481 2015,739 Z"/>
  </g>
  <g id="bullet-char-template-10007" transform="scale(0.00048828125,-0.00048828125)">
   <path d="M 0,-2 C -7,14 -16,27 -25,37 L 356,567 C 262,823 215,952 215,954 215,979 228,992 255,992 264,992 276,990 289,987 310,991 331,999 354,1012 L 381,999 492,748 772,1049 836,1024 860,1049 C 881,1039 901,1025 922,1006 886,937 835,863 770,784 769,783 710,716 594,584 L 774,223 C 774,196 753,168 711,139 L 727,119 C 717,90 699,76 672,76 641,76 570,178 457,381 L 164,-76 C 142,-110 111,-127 72,-127 30,-127 9,-110 8,-76 1,-67 -2,-52 -2,-32 -2,-23 -1,-13 0,-2 Z"/>
  </g>
  <g id="bullet-char-template-10004" transform="scale(0.00048828125,-0.00048828125)">
   <path d="M 285,-33 C 182,-33 111,30 74,156 52,228 41,333 41,471 41,549 55,616 82,672 116,743 169,778 240,778 293,778 328,747 346,684 L 369,508 C 377,444 397,411 428,410 L 1163,1116 C 1174,1127 1196,1133 1229,1133 1271,1133 1292,1118 1292,1087 L 1292,965 C 1292,929 1282,901 1262,881 L 442,47 C 390,-6 338,-33 285,-33 Z"/>
  </g>
  <g id="bullet-char-template-9679" transform="scale(0.00048828125,-0.00048828125)">
   <path d="M 813,0 C 632,0 489,54 383,161 276,268 223,411 223,592 223,773 276,916 383,1023 489,1130 632,1184 813,1184 992,1184 1136,1130 1245,1023 1353,916 1407,772 1407,592 1407,412 1353,268 1245,161 1136,54 992,0 813,0 Z"/>
  </g>
  <g id="bullet-char-template-8226" transform="scale(0.00048828125,-0.00048828125)">
   <path d="M 346,457 C 273,457 209,483 155,535 101,586 74,649 74,723 74,796 101,859 155,911 209,963 273,989 346,989 419,989 480,963 531,910 582,859 608,796 608,723 608,648 583,586 532,535 482,483 420,457 346,457 Z"/>
  </g>
  <g id="bullet-char-template-8211" transform="scale(0.00048828125,-0.00048828125)">
   <path d="M -4,459 L 1135,459 1135,606 -4,606 -4,459 Z"/>
  </g>
  <g id="bullet-char-template-61548" transform="scale(0.00048828125,-0.00048828125)">
   <path d="M 173,740 C 173,903 231,1043 346,1159 462,1274 601,1332 765,1332 928,1332 1067,1274 1183,1159 1299,1043 1357,903 1357,740 1357,577 1299,437 1183,322 1067,206 928,148 765,148 601,148 462,206 346,322 231,437 173,577 173,740 Z"/>
  </g>
 </defs>
 <defs class="TextEmbeddedBitmaps"/>
 <g>
  <g id="id2" class="Master_Slide">
   <g id="bg-id2" class="Background"/>
   <g id="bo-id2" class="BackgroundObjects"/>
  </g>
 </g>
 <g class="SlideGroup">
  <g>
   <g id="container-id1">
    <g id="id1" class="Slide" clip-path="url(#presentation_clip_path)">
     <g class="Page">
      <g class="com.sun.star.drawing.CustomShape">
       <g id="id3">
        <rect class="BoundingBox" stroke="none" fill="none" x="44" y="118" width="757" height="650"/>
        <g>
         <defs>
          <linearGradient id="gradient1" x1="201" y1="59" x2="644" y2="826" gradientUnits="userSpaceOnUse">
           <stop offset="0" style="stop-color:rgb(0,255,255)"/>
           <stop offset="1" style="stop-color:rgb(30,144,255)"/>
          </linearGradient>
         </defs>
         <path style="fill:url(#gradient1)" d="M 746,415 L 671,651 450,766 214,691 99,469 174,233 396,119 632,194 746,415 Z"/>
        </g>
       </g>
      </g>
      <g class="com.sun.star.drawing.CustomShape">
       <g id="id4">
        <rect class="BoundingBox" stroke="none" fill="none" x="201" y="51" width="536" height="495"/>
        <path fill="rgb(255,255,255)" stroke="none" d="M 660,359 C 617,494 501,570 393,536 286,502 235,373 278,237 321,102 437,26 545,60 652,94 703,223 660,359 Z M 735,120 L 735,120 Z M 201,476 L 201,476 Z"/>
       </g>
      </g>
      <g class="com.sun.star.drawing.CustomShape">
       <g id="id5">
        <rect class="BoundingBox" stroke="none" fill="none" x="6" y="690" width="447" height="744"/>
        <g>
         <defs>
          <linearGradient id="gradient2" x1="13" y1="687" x2="446" y2="1436" gradientUnits="userSpaceOnUse">
           <stop offset="0" style="stop-color:rgb(0,255,255)"/>
           <stop offset="1" style="stop-color:rgb(30,144,255)"/>
          </linearGradient>
         </defs>
         <path style="fill:url(#gradient2)" d="M 112,1024 L 219,691 452,765 240,1432 6,1358 112,1024 Z"/>
        </g>
       </g>
      </g>
      <g class="Graphic">
       <g id="id6">
        <rect class="BoundingBox" stroke="none" fill="none" x="499" y="232" width="1402" height="1402"/>
        <defs>
         <clipPath id="clip_path_1" clipPathUnits="userSpaceOnUse">
          <path d="M 499,232 L 1900,232 1900,1633 499,1633 499,232 Z"/>
         </clipPath>
        </defs>
        <g clip-path="url(#clip_path_1)"/>
        <defs>
         <clipPath id="clip_path_2" clipPathUnits="userSpaceOnUse">
          <path d="M 1456,476 C 1437,457 1408,455 1386,470 1388,467 1389,464 1390,462 1400,441 1396,416 1379,400 L 1227,248 1150,248 717,681 C 662,736 653,824 698,889 L 797,1036 C 823,1073 814,1122 778,1149 766,1156 755,1164 742,1173 645,1239 579,1284 554,1310 519,1346 499,1393 499,1444 499,1494 519,1542 555,1578 591,1615 640,1633 689,1633 737,1633 785,1615 822,1578 851,1551 892,1491 955,1396 965,1382 974,1368 983,1354 1010,1318 1059,1309 1096,1334 L 1242,1434 C 1308,1478 1395,1470 1451,1414 1451,1414 1451,1414 1451,1414 L 1531,1333 C 1552,1311 1552,1277 1530,1255 L 913,640 1189,364 1275,450 C 1229,545 1189,616 1159,656 1143,677 1144,706 1162,726 1180,745 1209,749 1232,735 1290,698 1352,650 1416,591 L 1487,661 C 1466,685 1434,720 1394,754 1371,774 1368,808 1388,831 1399,844 1414,850 1429,850 1442,850 1455,846 1465,837 1507,801 1541,765 1565,739 L 1768,941 1645,1064 C 1624,1085 1624,1120 1645,1141 1667,1162 1701,1162 1723,1141 L 1884,979 C 1894,969 1900,955 1900,941 1900,926 1894,912 1884,902 L 1456,476 Z M 1415,1295 L 1373,1337 C 1355,1355 1326,1358 1304,1343 L 1157,1244 C 1116,1216 1066,1205 1016,1214 967,1223 923,1250 894,1291 894,1291 893,1292 893,1292 884,1306 874,1321 864,1335 822,1399 768,1478 747,1499 746,1499 746,1500 745,1500 714,1531 663,1531 632,1500 617,1485 608,1465 608,1444 608,1422 617,1402 632,1387 632,1387 632,1386 633,1386 651,1367 743,1305 804,1263 816,1255 829,1246 840,1239 840,1238 841,1238 841,1238 882,1209 909,1165 918,1116 927,1066 916,1016 888,975 L 788,828 C 773,806 776,777 795,758 L 835,718 1415,1295 Z"/>
         </clipPath>
        </defs>
        <g clip-path="url(#clip_path_2)">
         <path fill="rgb(0,242,254)" stroke="none" d="M 473,232 L 525,232 525,1633 473,1633 473,232 Z"/>
         <path fill="rgb(0,242,254)" stroke="none" d="M 473,232 L 555,232 555,1633 473,1633 473,232 Z"/>
         <path fill="rgb(3,239,254)" stroke="none" d="M 502,232 L 593,232 593,1633 502,1633 502,232 Z"/>
         <path fill="rgb(6,236,254)" stroke="none" d="M 540,232 L 631,232 631,1633 540,1633 540,232 Z"/>
         <path fill="rgb(10,233,254)" stroke="none" d="M 578,232 L 669,232 669,1633 578,1633 578,232 Z"/>
         <path fill="rgb(13,230,254)" stroke="none" d="M 616,232 L 707,232 707,1633 616,1633 616,232 Z"/>
         <path fill="rgb(16,227,254)" stroke="none" d="M 654,232 L 745,232 745,1633 654,1633 654,232 Z"/>
         <path fill="rgb(19,225,254)" stroke="none" d="M 692,232 L 783,232 783,1633 692,1633 692,232 Z"/>
         <path fill="rgb(23,222,254)" stroke="none" d="M 731,232 L 822,232 822,1633 731,1633 731,232 Z"/>
         <path fill="rgb(26,219,254)" stroke="none" d="M 769,232 L 860,232 860,1633 769,1633 769,232 Z"/>
         <path fill="rgb(29,216,254)" stroke="none" d="M 807,232 L 898,232 898,1633 807,1633 807,232 Z"/>
         <path fill="rgb(33,213,254)" stroke="none" d="M 845,232 L 936,232 936,1633 845,1633 845,232 Z"/>
         <path fill="rgb(36,210,254)" stroke="none" d="M 883,232 L 977,232 977,1633 883,1633 883,232 Z"/>
         <path fill="rgb(39,208,254)" stroke="none" d="M 924,232 L 1017,232 1017,1633 924,1633 924,232 Z"/>
         <path fill="rgb(41,205,254)" stroke="none" d="M 964,232 L 1058,232 1058,1633 964,1633 964,232 Z"/>
         <path fill="rgb(44,203,254)" stroke="none" d="M 1005,232 L 1098,232 1098,1633 1005,1633 1005,232 Z"/>
         <path fill="rgb(47,201,254)" stroke="none" d="M 1045,232 L 1139,232 1139,1633 1045,1633 1045,232 Z"/>
         <path fill="rgb(49,198,254)" stroke="none" d="M 1086,232 L 1180,232 1180,1633 1086,1633 1086,232 Z"/>
         <path fill="rgb(52,196,254)" stroke="none" d="M 1127,232 L 1220,232 1220,1633 1127,1633 1127,232 Z"/>
         <path fill="rgb(55,194,254)" stroke="none" d="M 1167,232 L 1261,232 1261,1633 1167,1633 1167,232 Z"/>
         <path fill="rgb(57,191,254)" stroke="none" d="M 1208,232 L 1301,232 1301,1633 1208,1633 1208,232 Z"/>
         <path fill="rgb(60,189,254)" stroke="none" d="M 1248,232 L 1339,232 1339,1633 1248,1633 1248,232 Z"/>
         <path fill="rgb(62,188,254)" stroke="none" d="M 1286,232 L 1377,232 1377,1633 1286,1633 1286,232 Z"/>
         <path fill="rgb(63,186,254)" stroke="none" d="M 1324,232 L 1414,232 1414,1633 1324,1633 1324,232 Z"/>
         <path fill="rgb(65,185,254)" stroke="none" d="M 1361,232 L 1452,232 1452,1633 1361,1633 1361,232 Z"/>
         <path fill="rgb(66,183,254)" stroke="none" d="M 1399,232 L 1489,232 1489,1633 1399,1633 1399,232 Z"/>
         <path fill="rgb(68,182,254)" stroke="none" d="M 1437,232 L 1527,232 1527,1633 1437,1633 1437,232 Z"/>
         <path fill="rgb(69,180,254)" stroke="none" d="M 1474,232 L 1565,232 1565,1633 1474,1633 1474,232 Z"/>
         <path fill="rgb(71,179,254)" stroke="none" d="M 1512,232 L 1602,232 1602,1633 1512,1633 1512,232 Z"/>
         <path fill="rgb(72,177,254)" stroke="none" d="M 1549,232 L 1640,232 1640,1633 1549,1633 1549,232 Z"/>
         <path fill="rgb(74,176,254)" stroke="none" d="M 1587,232 L 1688,232 1688,1633 1587,1633 1587,232 Z"/>
         <path fill="rgb(75,175,254)" stroke="none" d="M 1635,232 L 1735,232 1735,1633 1635,1633 1635,232 Z"/>
         <path fill="rgb(76,175,254)" stroke="none" d="M 1682,232 L 1783,232 1783,1633 1682,1633 1682,232 Z"/>
         <path fill="rgb(77,174,254)" stroke="none" d="M 1730,232 L 1831,232 1831,1633 1730,1633 1730,232 Z"/>
         <path fill="rgb(77,173,254)" stroke="none" d="M 1778,232 L 1879,232 1879,1633 1778,1633 1778,232 Z"/>
         <path fill="rgb(78,173,254)" stroke="none" d="M 1826,232 L 1926,232 1926,1633 1826,1633 1826,232 Z"/>
        </g>
        <g clip-path="url(#clip_path_1)"/>
       </g>
      </g>
     </g>
    </g>
   </g>
  </g>
 </g>
</svg>