<?xml version="1.0" encoding="UTF-8"?>
<!DOCTYPE svg PUBLIC "-//W3C//DTD SVG 1.1//EN" "http://www.w3.org/Graphics/SVG/1.1/DTD/svg11.dtd">
<svg version="1.2" width="25mm" height="23mm" viewBox="0 0 2500 2300" preserveAspectRatio="xMidYMid" fill-rule="evenodd" stroke-width="28.222" stroke-linejoin="round" xmlns="http://www.w3.org/2000/svg" xmlns:ooo="http://xml.openoffice.org/svg/export" xmlns:xlink="http://www.w3.org/1999/xlink" xmlns:presentation="http://sun.com/xmlns/staroffice/presentation" xmlns:smil="http://www.w3.org/2001/SMIL20/" xmlns:anim="urn:oasis:names:tc:opendocument:xmlns:animation:1.0" xml:space="preserve">
 <defs class="ClipPathGroup">
  <clipPath id="presentation_clip_path" clipPathUnits="userSpaceOnUse">
   <rect x="0" y="0" width="2500" height="2300"/>
  </clipPath>
  <clipPath id="presentation_clip_path_shrink" clipPathUnits="userSpaceOnUse">
   <rect x="2" y="2" width="2495" height="2296"/>
  </clipPath>
 </defs>
 <defs class="TextShapeIndex">
  <g ooo:slide="id1" ooo:id-list="id3 id4 id5 id6 id7 id8 id9 id10 id11 id12 id13 id14 id15 id16 id17"/>
 </defs>
 <defs class="EmbeddedBulletChars">
  <g id="bullet-char-template-57356" transform="scale(0.00048828125,-0.00048828125)">
   <path d="M 580,1141 L 1163,571 580,0 -4,571 580,1141 Z"/>
  </g>
  <g id="bullet-char-template-57354" transform="scale(0.00048828125,-0.00048828125)">
   <path d="M 8,1128 L 1137,1128 1137,0 8,0 8,1128 Z"/>
  </g>
  <g id="bullet-char-template-10146" transform="scale(0.00048828125,-0.00048828125)">
   <path d="M 174,0 L 602,739 174,1481 1456,739 174,0 Z M 1358,739 L 309,1346 659,739 1358,739 Z"/>
  </g>
  <g id="bullet-char-template-10132" transform="scale(0.00048828125,-0.00048828125)">
   <path d="M 2015,739 L 1276,0 717,0 1260,543 174,543 174,936 1260,936 717,1481 1274,1481 2015,739 Z"/>
  </g>
  <g id="bullet-char-template-10007" transform="scale(0.00048828125,-0.00048828125)">
   <path d="M 0,-2 C -7,14 -16,27 -25,37 L 356,567 C 262,823 215,952 215,954 215,979 228,992 255,992 264,992 276,990 289,987 310,991 331,999 354,1012 L 381,999 492,748 772,1049 836,1024 860,1049 C 881,1039 901,1025 922,1006 886,937 835,863 770,784 769,783 710,716 594,584 L 774,223 C 774,196 753,168 711,139 L 727,119 C 717,90 699,76 672,76 641,76 570,178 457,381 L 164,-76 C 142,-110 111,-127 72,-127 30,-127 9,-110 8,-76 1,-67 -2,-52 -2,-32 -2,-23 -1,-13 0,-2 Z"/>
  </g>
  <g id="bullet-char-template-10004" transform="scale(0.00048828125,-0.00048828125)">
   <path d="M 285,-33 C 182,-33 111,30 74,156 52,228 41,333 41,471 41,549 55,616 82,672 116,743 169,778 240,778 293,778 328,747 346,684 L 369,508 C 377,444 397,411 428,410 L 1163,1116 C 1174,1127 1196,1133 1229,1133 1271,1133 1292,1118 1292,1087 L 1292,965 C 1292,929 1282,901 1262,881 L 442,47 C 390,-6 338,-33 285,-33 Z"/>
  </g>
  <g id="bullet-char-template-9679" transform="scale(0.00048828125,-0.00048828125)">
   <path d="M 813,0 C 632,0 489,54 383,161 276,268 223,411 223,592 223,773 276,916 383,1023 489,1130 632,1184 813,1184 992,1184 1136,1130 1245,1023 1353,916 1407,772 1407,592 1407,412 1353,268 1245,161 1136,54 992,0 813,0 Z"/>
  </g>
  <g id="bullet-char-template-8226" transform="scale(0.00048828125,-0.00048828125)">
   <path d="M 346,457 C 273,457 209,483 155,535 101,586 74,649 74,723 74,796 101,859 155,911 209,963 273,989 346,989 419,989 480,963 531,910 582,859 608,796 608,723 608,648 583,586 532,535 482,483 420,457 346,457 Z"/>
  </g>
  <g id="bullet-char-template-8211" transform="scale(0.00048828125,-0.00048828125)">
   <path d="M -4,459 L 1135,459 1135,606 -4,606 -4,459 Z"/>
  </g>
  <g id="bullet-char-template-61548" transform="scale(0.00048828125,-0.00048828125)">
   <path d="M 173,740 C 173,903 231,1043 346,1159 462,1274 601,1332 765,1332 928,1332 1067,1274 1183,1159 1299,1043 1357,903 1357,740 1357,577 1299,437 1183,322 1067,206 928,148 765,148 601,148 462,206 346,322 231,437 173,577 173,740 Z"/>
  </g>
 </defs>
 <defs class="TextEmbeddedBitmaps"/>
 <g>
  <g id="id2" class="Master_Slide">
   <g id="bg-id2" class="Background"/>
   <g id="bo-id2" class="BackgroundObjects"/>
  </g>
 </g>
 <g class="SlideGroup">
  <g>
   <g id="container-id1">
    <g id="id1" class="Slide" clip-path="url(#presentation_clip_path)">
     <g class="Page">
      <g class="Group">
       <g class="com.sun.star.drawing.CustomShape">
        <g id="id3">
         <rect class="BoundingBox" stroke="none" fill="none" x="200" y="600" width="2101" height="1501"/>
         <path fill="rgb(146,226,133)" stroke="none" d="M 1250,2100 L 200,2100 200,600 2300,600 2300,2100 1250,2100 Z"/>
        </g>
       </g>
       <g class="com.sun.star.drawing.CustomShape">
        <g id="id4">
         <rect class="BoundingBox" stroke="none" fill="none" x="0" y="2100" width="2501" height="201"/>
         <path fill="rgb(255,215,76)" stroke="none" d="M 1250,2300 L 0,2300 0,2100 2500,2100 2500,2300 1250,2300 Z"/>
        </g>
       </g>
       <g class="com.sun.star.drawing.CustomShape">
        <g id="id5">
         <rect class="BoundingBox" stroke="none" fill="none" x="1399" y="399" width="503" height="503"/>
         <path fill="rgb(255,255,255)" stroke="none" d="M 1650,400 C 1792,400 1900,508 1900,650 1900,792 1792,900 1650,900 1508,900 1400,792 1400,650 1400,508 1508,400 1650,400 Z M 1400,400 L 1400,400 Z M 1901,901 L 1901,901 Z"/>
        </g>
       </g>
       <g class="com.sun.star.drawing.PolyPolygonShape">
        <g id="id6">
         <rect class="BoundingBox" stroke="none" fill="none" x="1715" y="7" width="687" height="595"/>
         <path fill="rgb(255,69,0)" stroke="none" d="M 2400,600 L 2200,600 1900,600 1716,8 2016,8 2400,600 Z"/>
         <path fill="none" stroke="rgb(255,69,0)" d="M 2400,600 L 2200,600 1900,600 1716,8 2016,8 2400,600 Z"/>
        </g>
       </g>
       <g class="com.sun.star.drawing.CustomShape">
        <g id="id7">
         <rect class="BoundingBox" stroke="none" fill="none" x="400" y="1200" width="401" height="401"/>
         <path fill="rgb(163,62,3)" stroke="none" d="M 600,1600 L 400,1600 400,1200 800,1200 800,1600 600,1600 Z"/>
        </g>
       </g>
       <g class="com.sun.star.drawing.CustomShape">
        <g id="id8">
         <rect class="BoundingBox" stroke="none" fill="none" x="1782" y="1182" width="437" height="437"/>
         <path fill="rgb(163,62,3)" stroke="none" d="M 2000,1600 L 1800,1600 1800,1200 2200,1200 2200,1600 2000,1600 Z"/>
         <path fill="none" stroke="rgb(255,165,0)" stroke-width="35" stroke-linejoin="round" d="M 2000,1600 L 1800,1600 1800,1200 2200,1200 2200,1600 2000,1600 Z"/>
        </g>
       </g>
       <g class="com.sun.star.drawing.CustomShape">
        <g id="id9">
         <rect class="BoundingBox" stroke="none" fill="none" x="1082" y="1082" width="437" height="937"/>
         <path fill="rgb(211,97,24)" stroke="none" d="M 1300,2000 L 1100,2000 1100,1100 1500,1100 1500,2000 1300,2000 Z"/>
         <path fill="none" stroke="rgb(233,185,19)" stroke-width="35" stroke-linejoin="round" d="M 1300,2000 L 1100,2000 1100,1100 1500,1100 1500,2000 1300,2000 Z"/>
        </g>
       </g>
       <g class="com.sun.star.drawing.LineShape">
        <g id="id10">
         <rect class="BoundingBox" stroke="none" fill="none" x="486" y="-14" width="1529" height="29"/>
         <path fill="none" stroke="rgb(149,165,166)" stroke-width="28" stroke-linejoin="round" d="M 500,0 L 2000,0"/>
        </g>
       </g>
       <g class="com.sun.star.drawing.CustomShape">
        <g id="id11">
         <rect class="BoundingBox" stroke="none" fill="none" x="1000" y="0" width="501" height="601"/>
         <path fill="rgb(255,69,0)" stroke="none" d="M 1250,600 L 1000,600 1000,0 1500,0 1500,600 1250,600 Z"/>
        </g>
       </g>
       <g class="com.sun.star.drawing.CustomShape">
        <g id="id12">
         <rect class="BoundingBox" stroke="none" fill="none" x="500" y="399" width="502" height="503"/>
         <path fill="rgb(255,255,255)" stroke="none" d="M 750,400 C 892,400 1000,508 1000,650 1000,792 892,900 750,900 608,900 500,792 500,650 500,508 608,400 750,400 Z M 500,400 L 500,400 Z M 1001,901 L 1001,901 Z"/>
        </g>
       </g>
       <g class="com.sun.star.drawing.CustomShape">
        <g id="id13">
         <rect class="BoundingBox" stroke="none" fill="none" x="99" y="399" width="503" height="503"/>
         <path fill="rgb(255,69,0)" stroke="none" d="M 350,400 C 492,400 600,508 600,650 600,792 492,900 350,900 208,900 100,792 100,650 100,508 208,400 350,400 Z M 100,400 L 100,400 Z M 601,901 L 601,901 Z"/>
        </g>
       </g>
       <g class="com.sun.star.drawing.CustomShape">
        <g id="id14">
         <rect class="BoundingBox" stroke="none" fill="none" x="1900" y="399" width="502" height="503"/>
         <path fill="rgb(255,69,0)" stroke="none" d="M 2150,400 C 2292,400 2400,508 2400,650 2400,792 2292,900 2150,900 2008,900 1900,792 1900,650 1900,508 2008,400 2150,400 Z M 1900,400 L 1900,400 Z M 2401,901 L 2401,901 Z"/>
        </g>
       </g>
       <g class="com.sun.star.drawing.CustomShape">
        <g id="id15">
         <rect class="BoundingBox" stroke="none" fill="none" x="1000" y="399" width="502" height="503"/>
         <path fill="rgb(255,69,0)" stroke="none" d="M 1250,400 C 1392,400 1500,508 1500,650 1500,792 1392,900 1250,900 1108,900 1000,792 1000,650 1000,508 1108,400 1250,400 Z M 1000,400 L 1000,400 Z M 1501,901 L 1501,901 Z"/>
        </g>
       </g>
       <g class="com.sun.star.drawing.PolyPolygonShape">
        <g id="id16">
         <rect class="BoundingBox" stroke="none" fill="none" x="100" y="4" width="704" height="597"/>
         <path fill="rgb(255,69,0)" stroke="none" d="M 100,600 L 300,600 600,600 802,4 502,4 100,600 Z"/>
        </g>
       </g>
       <g class="com.sun.star.drawing.CustomShape">
        <g id="id17">
         <rect class="BoundingBox" stroke="none" fill="none" x="382" y="1182" width="437" height="437"/>
         <path fill="rgb(163,62,3)" stroke="none" d="M 600,1600 L 400,1600 400,1200 800,1200 800,1600 600,1600 Z"/>
         <path fill="none" stroke="rgb(255,165,0)" stroke-width="35" stroke-linejoin="round" d="M 600,1600 L 400,1600 400,1200 800,1200 800,1600 600,1600 Z"/>
        </g>
       </g>
      </g>
     </g>
    </g>
   </g>
  </g>
 </g>
</svg>