<svg height="512pt" viewBox="0 0 512 512.00087" width="512pt" xmlns="http://www.w3.org/2000/svg"><path d="m236.203125 299.121094 31.808594 31.808594c3.734375 3.734374 8.035156 6.503906 12.554687 8.648437l59.710938-59.710937c-2.144532-4.523438-4.914063-8.820313-8.648438-12.554688l-31.808594-31.808594-21.207031 21.203125-163.605469-162.90625 23.121094-23.121093-98.96875-70.679688-39.160156 39.160156 70.679688 98.96875 23.121093-23.121094 163.605469 162.90625zm0 0"/><path d="m203.777344 371.84375 32.425781-30.3125-42.414063-42.410156 21.207032-21.207032-21.207032-21.207031-53.628906 51.519531c-37.835937-13.460937-80.664062-4.164062-109.46875 24.644532-40.921875 40.917968-40.921875 107.519531 0 148.441406 40.921875 40.917969 107.523438 40.917969 148.441406 0 28.804688-28.808594 38.105469-71.636719 24.644532-109.46875zm-130.675782 67.054688c-17.539062-17.542969-17.539062-46.078126 0-63.621094 17.539063-17.539063 46.078126-17.539063 63.617188 0 17.542969 17.542968 17.542969 46.078125 0 63.621094-17.539062 17.539062-46.074219 17.539062-63.617188 0zm0 0"/><path d="m115.515625 396.484375c-5.851563-5.847656-15.355469-5.847656-21.207031 0-5.847656 5.851563-5.847656 15.355469 0 21.207031 5.851562 5.851563 15.355468 5.851563 21.207031 0 5.847656-5.851562 5.847656-15.355468 0-21.207031zm0 0"/><path d="m489.902344 384.042969-105.257813-106.128907-42.414062 42.410157 94.65625 95.527343-21.207031 21.207032-94.652344-95.527344-42.414063 42.410156 105.257813 106.132813c29.230468 29.230469 76.800781 29.230469 106.03125 0 29.230468-29.230469 29.230468-76.800781 0-106.03125zm0 0"/><path d="m308.039062 140.339844-50.632812 52.75 21.207031 21.207031 21.207031-21.207031 42.410157 42.410156 29.425781-31.539062c37.835938 13.460937 80.664062 4.160156 109.46875-24.644532 31.363281-31.363281 39.605469-79.367187 20.503906-119.449218l-2.289062-4.796876-60.625 60.628907h-42.414063v-42.414063l60.628907-60.625-4.796876-2.285156c-40.082031-19.105469-88.085937-10.863281-119.449218 20.5-28.804688 28.804688-38.105469 71.632812-24.644532 109.464844zm0 0"/></svg>