<svg viewBox="0 0 512 512" xmlns="http://www.w3.org/2000/svg"><path d="m136 270h-25.914062c-26.277344 0-50.976563-14.03125-64.421876-36.605469l-37.324218-62.636719c-11.6875-28.722656-10.875-58.832031 1.1875-84.828124 12.230468-26.382813 34.160156-45.96875 61.726562-55.152344l9.492188 28.445312c-19.65625 6.5625-35.289063 20.523438-44.003906 39.316406-8.542969 18.421876-9.125 40.117188-1.582032 58.976563l36.285156 60.527344c8.070313 13.550781 22.867188 21.957031 38.640626 21.957031h25.914062zm0 0" fill="#f8e5ca"/><path d="m221.914062 270h-25.914062v-30h25.914062c15.773438 0 30.570313-8.40625 38.640626-21.957031l37.324218-62.636719c6.652344-17.125 6.09375-38.070312-2.621094-56.867188-8.714843-18.792968-24.347656-32.753906-44.003906-39.316406l9.492188-28.445312c27.566406 9.183594 49.496094 28.769531 61.730468 55.152344 12.230469 26.367187 13.019532 55.734374 2.226563 82.71875l-38.363281 64.746093c-13.449219 22.574219-38.148438 36.605469-64.425782 36.605469zm0 0" fill="#f4d7af"/><path d="m392 377c0 24.898438-20.097656 45-45 45h-173.800781c5.101562-14.101562 7.800781-29.101562 7.800781-45v-62h-30v62c0 16.199219-3.601562 31.199219-10.199219 45h-95.800781c-24.902344 0-45 20.097656-45 45 0 24.898438 20.097656 45 45 45 46.800781 0 88.898438-23.699219 113.199219-60h188.800781c41.398438 0 75-33.601562 75-75zm-347 105c-8.402344 0-15-6.601562-15-15 0-8.402344 6.597656-15.199219 15-15.199219h74.5c-18.898438 18.597657-46 30.199219-74.5 30.199219zm0 0" fill="#ff7816"/><path d="m422 377c0 41.398438-33.601562 75-75 75h-181v-137h15v62c0 15.898438-2.699219 30.898438-7.800781 45h173.800781c24.902344 0 45-20.101562 45-45zm0 0" fill="#ff4b00"/><path d="m106 90h-45v-90h45c24.8125 0 45 20.1875 45 45s-20.1875 45-45 45zm0 0" fill="#ff7816"/><path d="m271 90h-45c-24.8125 0-45-20.1875-45-45s20.1875-45 45-45h45zm0 0" fill="#ff4b00"/><path d="m166 210c-24.902344 0-45 20.097656-45 45v30c0 24.898438 20.097656 45 45 45s45-20.101562 45-45v-30c0-24.902344-20.097656-45-45-45zm0 0" fill="#ff9f00"/><path d="m211 255v30c0 24.898438-20.097656 45-45 45v-120c24.902344 0 45 20.097656 45 45zm0 0" fill="#ff7816"/><path d="m407 392c-57.890625 0-105-47.109375-105-105s47.109375-105 105-105 105 47.109375 105 105-47.109375 105-105 105zm0 0" fill="#f8e5ca"/><path d="m407 332c-24.8125 0-45-20.1875-45-45s20.1875-45 45-45 45 20.1875 45 45-20.1875 45-45 45zm0 0" fill="#f1c992"/></svg>